M48
;Layer_Color=9474304
;FILE_FORMAT=2:4
INCH,TZ
;TYPE=PLATED
T01F00S00C0.0280
T02F00S00C0.0354
T03F00S00C0.0394
T04F00S00C0.0512
T05F00S00C0.1000
%
T01
X42850Y13800
X41750Y15450
X55250Y11150
X55090Y20610
X55940Y21120
X55450Y23550
X55558Y26172
X51987Y24350
X52220Y22750
X51680Y22060
X52030Y20388
X50450Y20900
X50400Y19050
X52450Y18200
X47350Y17900
X47750Y23100
X50000Y24350
X48950Y29650
X54652Y31180
X46550Y30100
X46450Y28900
Y28150
X45450Y28300
X45590Y26990
X46570Y27040
X46200Y26100
X46690Y25530
X45366Y24864
X45036Y23656
X43153Y24453
X43750Y25250
X42650Y25550
X43990Y26956
X43630Y27371
X44020Y27900
X43990Y28618
X43430Y28640
X43240Y30440
X45050Y30276
X45200Y29649
X45800Y29405
X41537Y27493
X40310Y26060
X39444Y26503
X37000Y27450
X37344Y28150
X38000Y29500
X40000Y30600
X35600Y26250
X35700Y24650
X37750Y23750
X38400Y15900
X44150Y17400
X44100Y18100
X45350Y17600
X46750
X46622Y16872
X44150Y21000
X42400Y31250
X42100Y32036
X43828Y33122
X46350Y37850
X46100Y38700
X46800Y39850
X45600Y41000
X45850Y42700
X45550Y44400
X43350Y42350
X41750Y40710
X40093Y40663
Y39875
Y41450
Y42237
Y43025
X38007
Y42237
Y41450
Y40663
Y39875
X48500Y38600
X48450Y37850
X49354Y38050
X49700Y39300
X50850
X51800Y39400
Y40650
X52650Y39850
X50250Y40200
X50100Y37050
X55700Y39750
X55538Y42110
X56110Y43020
X54100Y44150
X51220Y44470
X48500Y43850
T02
X53550Y20582
Y21566
Y22550
Y23534
Y24518
Y25503
X53450Y40997
Y41982
Y42966
Y43950
X50200
Y42966
Y41982
Y40997
T03
X45050Y11668
X46050
X47050
X48050
X48344Y26120
X49344
Y27120
Y28120
X48344
Y27120
T04
X51328Y11764
Y13733
X53328
Y11764
X66181Y14563
X68149
Y16563
X66181
Y20813
X68149
Y22813
X66181
Y26890
X68149
Y28891
X66181
X46800Y41700
X44300
X66234Y41740
X68203
Y39741
X66234
Y35313
X68203
Y33313
X66234
T05
X35450Y11250
X68900Y11050
X35500Y43850
X69000Y44000
M30
