G04*
G04 #@! TF.GenerationSoftware,Altium Limited,Altium Designer,24.6.1 (21)*
G04*
G04 Layer_Color=255*
%FSLAX25Y25*%
%MOIN*%
G70*
G04*
G04 #@! TF.SameCoordinates,02B8DA6F-49FF-4BAE-8194-33363A00AC8D*
G04*
G04*
G04 #@! TF.FilePolarity,Positive*
G04*
G01*
G75*
%ADD56C,0.05512*%
%ADD57R,0.05512X0.05512*%
%ADD61R,0.06102X0.06102*%
%ADD62C,0.06102*%
G04:AMPARAMS|DCode=70|XSize=76.77mil|YSize=76.77mil|CornerRadius=19.19mil|HoleSize=0mil|Usage=FLASHONLY|Rotation=90.000|XOffset=0mil|YOffset=0mil|HoleType=Round|Shape=RoundedRectangle|*
%AMROUNDEDRECTD70*
21,1,0.07677,0.03839,0,0,90.0*
21,1,0.03839,0.07677,0,0,90.0*
1,1,0.03839,0.01919,0.01919*
1,1,0.03839,0.01919,-0.01919*
1,1,0.03839,-0.01919,-0.01919*
1,1,0.03839,-0.01919,0.01919*
%
%ADD70ROUNDEDRECTD70*%
%ADD71C,0.07677*%
%ADD72R,0.07087X0.07087*%
%ADD73C,0.07087*%
%ADD74C,0.11000*%
%ADD75C,0.04370*%
%ADD76R,0.04370X0.04370*%
G04:AMPARAMS|DCode=77|XSize=76.77mil|YSize=76.77mil|CornerRadius=19.19mil|HoleSize=0mil|Usage=FLASHONLY|Rotation=0.000|XOffset=0mil|YOffset=0mil|HoleType=Round|Shape=RoundedRectangle|*
%AMROUNDEDRECTD77*
21,1,0.07677,0.03839,0,0,0.0*
21,1,0.03839,0.07677,0,0,0.0*
1,1,0.03839,0.01919,-0.01919*
1,1,0.03839,-0.01919,-0.01919*
1,1,0.03839,-0.01919,0.01919*
1,1,0.03839,0.01919,0.01919*
%
%ADD77ROUNDEDRECTD77*%
%ADD78C,0.05906*%
G04:AMPARAMS|DCode=79|XSize=59.06mil|YSize=59.06mil|CornerRadius=14.76mil|HoleSize=0mil|Usage=FLASHONLY|Rotation=0.000|XOffset=0mil|YOffset=0mil|HoleType=Round|Shape=RoundedRectangle|*
%AMROUNDEDRECTD79*
21,1,0.05906,0.02953,0,0,0.0*
21,1,0.02953,0.05906,0,0,0.0*
1,1,0.02953,0.01476,-0.01476*
1,1,0.02953,-0.01476,-0.01476*
1,1,0.02953,-0.01476,0.01476*
1,1,0.02953,0.01476,0.01476*
%
%ADD79ROUNDEDRECTD79*%
D56*
X534500Y439500D02*
D03*
Y429658D02*
D03*
Y419815D02*
D03*
X502000Y439500D02*
D03*
Y429658D02*
D03*
Y419815D02*
D03*
X535500Y205815D02*
D03*
Y215657D02*
D03*
Y225500D02*
D03*
Y235343D02*
D03*
Y245185D02*
D03*
D57*
X534500Y409972D02*
D03*
X502000D02*
D03*
X535500Y255028D02*
D03*
D61*
X493441Y281201D02*
D03*
D62*
Y271201D02*
D03*
Y261201D02*
D03*
X483441Y281201D02*
D03*
Y271201D02*
D03*
Y261201D02*
D03*
D70*
X681493Y208129D02*
D03*
X661808D02*
D03*
Y268905D02*
D03*
X681493D02*
D03*
X682030Y333129D02*
D03*
X662345D02*
D03*
X682030Y397405D02*
D03*
X662345D02*
D03*
X681493Y145629D02*
D03*
X661808D02*
D03*
D71*
X681493Y228129D02*
D03*
X661808D02*
D03*
Y288905D02*
D03*
X681493D02*
D03*
X682030Y353129D02*
D03*
X662345D02*
D03*
X682030Y417405D02*
D03*
X662345D02*
D03*
X533276Y117642D02*
D03*
Y137327D02*
D03*
X681493Y165629D02*
D03*
X661808D02*
D03*
D72*
X468000Y417000D02*
D03*
D73*
X443000D02*
D03*
D74*
X354500Y112500D02*
D03*
X689000Y110500D02*
D03*
X690000Y440000D02*
D03*
X355000Y438500D02*
D03*
D75*
X400933Y398752D02*
D03*
Y406626D02*
D03*
Y414500D02*
D03*
Y422374D02*
D03*
Y430248D02*
D03*
X380067Y398752D02*
D03*
Y406626D02*
D03*
Y414500D02*
D03*
Y422374D02*
D03*
D76*
Y430248D02*
D03*
D77*
X513276Y117642D02*
D03*
Y137327D02*
D03*
D78*
X450500Y116681D02*
D03*
X460500D02*
D03*
X470500D02*
D03*
D79*
X480500D02*
D03*
M02*
