G04*
G04 #@! TF.GenerationSoftware,Altium Limited,Altium Designer,24.6.1 (21)*
G04*
G04 Layer_Color=32768*
%FSLAX25Y25*%
%MOIN*%
G70*
G04*
G04 #@! TF.SameCoordinates,02B8DA6F-49FF-4BAE-8194-33363A00AC8D*
G04*
G04*
G04 #@! TF.FilePolarity,Positive*
G04*
G01*
G75*
%ADD81C,0.00591*%
D81*
X669683Y216870D02*
Y214902D01*
Y215886D01*
X674603D01*
X675587Y214902D01*
Y213918D01*
X674603Y212934D01*
X670667Y218838D02*
X669683Y219822D01*
Y221790D01*
X670667Y222774D01*
X671651D01*
X672635Y221790D01*
X673619Y222774D01*
X674603D01*
X675587Y221790D01*
Y219822D01*
X674603Y218838D01*
X673619D01*
X672635Y219822D01*
X671651Y218838D01*
X670667D01*
X672635Y219822D02*
Y221790D01*
X669683Y277645D02*
Y275678D01*
Y276662D01*
X674603D01*
X675587Y275678D01*
Y274694D01*
X674603Y273710D01*
Y279613D02*
X675587Y280597D01*
Y282565D01*
X674603Y283549D01*
X670667D01*
X669683Y282565D01*
Y280597D01*
X670667Y279613D01*
X671651D01*
X672635Y280597D01*
Y283549D01*
X670220Y339410D02*
Y337442D01*
Y338426D01*
X675140D01*
X676123Y337442D01*
Y336458D01*
X675140Y335474D01*
X676123Y341378D02*
Y343346D01*
Y342362D01*
X670220D01*
X671204Y341378D01*
Y346298D02*
X670220Y347282D01*
Y349249D01*
X671204Y350233D01*
X675140D01*
X676123Y349249D01*
Y347282D01*
X675140Y346298D01*
X671204D01*
X670220Y406145D02*
Y404178D01*
Y405162D01*
X675140D01*
X676123Y404178D01*
Y403194D01*
X675140Y402210D01*
X676123Y412049D02*
Y408113D01*
X672188Y412049D01*
X671204D01*
X670220Y411065D01*
Y409097D01*
X671204Y408113D01*
X523000Y129452D02*
X521032D01*
X522016D01*
Y124532D01*
X521032Y123548D01*
X520048D01*
X519064Y124532D01*
X524968Y123548D02*
X526936D01*
X525952D01*
Y129452D01*
X524968Y128468D01*
X461564Y112548D02*
Y118452D01*
X464516D01*
X465500Y117468D01*
Y115500D01*
X464516Y114516D01*
X461564D01*
X467468Y112548D02*
X469436D01*
X468452D01*
Y118452D01*
X467468Y117468D01*
X669683Y154370D02*
Y152402D01*
Y153386D01*
X674603D01*
X675587Y152402D01*
Y151418D01*
X674603Y150434D01*
X669683Y156338D02*
Y160274D01*
X670667D01*
X674603Y156338D01*
X675587D01*
M02*
