G04*
G04 #@! TF.GenerationSoftware,Altium Limited,Altium Designer,24.6.1 (21)*
G04*
G04 Layer_Color=255*
%FSLAX25Y25*%
%MOIN*%
G70*
G04*
G04 #@! TF.SameCoordinates,02B8DA6F-49FF-4BAE-8194-33363A00AC8D*
G04*
G04*
G04 #@! TF.FilePolarity,Positive*
G04*
G01*
G75*
%ADD16R,0.05500X0.09000*%
%ADD17R,0.22400X0.24300*%
%ADD18R,0.05315X0.07480*%
%ADD19R,0.04528X0.04528*%
%ADD20O,0.05118X0.00984*%
%ADD21O,0.00984X0.05118*%
%ADD22R,0.05151X0.03175*%
%ADD23R,0.07795X0.02087*%
%ADD24R,0.22047X0.08268*%
%ADD25R,0.03740X0.05315*%
%ADD26R,0.06496X0.05118*%
%ADD27R,0.07087X0.07480*%
%ADD28R,0.03937X0.07480*%
%ADD29R,0.05610X0.06102*%
%ADD30R,0.01772X0.05433*%
%ADD31R,0.05906X0.06102*%
%ADD32R,0.04152X0.05339*%
%ADD33R,0.02953X0.03543*%
G04:AMPARAMS|DCode=34|XSize=51.58mil|YSize=24.41mil|CornerRadius=3.05mil|HoleSize=0mil|Usage=FLASHONLY|Rotation=90.000|XOffset=0mil|YOffset=0mil|HoleType=Round|Shape=RoundedRectangle|*
%AMROUNDEDRECTD34*
21,1,0.05158,0.01831,0,0,90.0*
21,1,0.04547,0.02441,0,0,90.0*
1,1,0.00610,0.00915,0.02274*
1,1,0.00610,0.00915,-0.02274*
1,1,0.00610,-0.00915,-0.02274*
1,1,0.00610,-0.00915,0.02274*
%
%ADD34ROUNDEDRECTD34*%
%ADD35R,0.06102X0.05118*%
%ADD36R,0.05512X0.04724*%
%ADD37R,0.04724X0.05709*%
%ADD38R,0.05339X0.04152*%
%ADD39R,0.05709X0.04528*%
%ADD40R,0.04750X0.05938*%
%ADD41R,0.12598X0.06772*%
%ADD56C,0.05512*%
%ADD57R,0.05512X0.05512*%
%ADD61R,0.06102X0.06102*%
%ADD62C,0.06102*%
%ADD67C,0.04724*%
G04:AMPARAMS|DCode=70|XSize=76.77mil|YSize=76.77mil|CornerRadius=19.19mil|HoleSize=0mil|Usage=FLASHONLY|Rotation=90.000|XOffset=0mil|YOffset=0mil|HoleType=Round|Shape=RoundedRectangle|*
%AMROUNDEDRECTD70*
21,1,0.07677,0.03839,0,0,90.0*
21,1,0.03839,0.07677,0,0,90.0*
1,1,0.03839,0.01919,0.01919*
1,1,0.03839,0.01919,-0.01919*
1,1,0.03839,-0.01919,-0.01919*
1,1,0.03839,-0.01919,0.01919*
%
%ADD70ROUNDEDRECTD70*%
%ADD71C,0.07677*%
%ADD72R,0.07087X0.07087*%
%ADD73C,0.07087*%
%ADD74C,0.11000*%
%ADD75C,0.04370*%
%ADD76R,0.04370X0.04370*%
G04:AMPARAMS|DCode=77|XSize=76.77mil|YSize=76.77mil|CornerRadius=19.19mil|HoleSize=0mil|Usage=FLASHONLY|Rotation=0.000|XOffset=0mil|YOffset=0mil|HoleType=Round|Shape=RoundedRectangle|*
%AMROUNDEDRECTD77*
21,1,0.07677,0.03839,0,0,0.0*
21,1,0.03839,0.07677,0,0,0.0*
1,1,0.03839,0.01919,-0.01919*
1,1,0.03839,-0.01919,-0.01919*
1,1,0.03839,-0.01919,0.01919*
1,1,0.03839,0.01919,0.01919*
%
%ADD77ROUNDEDRECTD77*%
%ADD78C,0.05906*%
G04:AMPARAMS|DCode=79|XSize=59.06mil|YSize=59.06mil|CornerRadius=14.76mil|HoleSize=0mil|Usage=FLASHONLY|Rotation=0.000|XOffset=0mil|YOffset=0mil|HoleType=Round|Shape=RoundedRectangle|*
%AMROUNDEDRECTD79*
21,1,0.05906,0.02953,0,0,0.0*
21,1,0.02953,0.05906,0,0,0.0*
1,1,0.02953,0.01476,-0.01476*
1,1,0.02953,-0.01476,-0.01476*
1,1,0.02953,-0.01476,0.01476*
1,1,0.02953,0.01476,0.01476*
%
%ADD79ROUNDEDRECTD79*%
D16*
X603500Y202008D02*
D03*
X585500D02*
D03*
Y139768D02*
D03*
X603500D02*
D03*
X585500Y264150D02*
D03*
X603500D02*
D03*
X586037Y328650D02*
D03*
X604037D02*
D03*
X584537Y390150D02*
D03*
X602537D02*
D03*
D17*
X594500Y227358D02*
D03*
Y165118D02*
D03*
Y289500D02*
D03*
X595037Y354000D02*
D03*
X593537Y415500D02*
D03*
D18*
X419894Y200000D02*
D03*
X407295D02*
D03*
D19*
X572626Y390150D02*
D03*
X563374D02*
D03*
X564000Y202500D02*
D03*
X573252D02*
D03*
X564874Y139000D02*
D03*
X574126D02*
D03*
X563374Y328650D02*
D03*
X572626D02*
D03*
Y264000D02*
D03*
X563374D02*
D03*
D20*
X447118Y243378D02*
D03*
Y245346D02*
D03*
Y247315D02*
D03*
Y249283D02*
D03*
Y251252D02*
D03*
Y253220D02*
D03*
Y255189D02*
D03*
Y257157D02*
D03*
Y259126D02*
D03*
Y261094D02*
D03*
Y263063D02*
D03*
Y265032D02*
D03*
Y267000D02*
D03*
Y268969D02*
D03*
Y270937D02*
D03*
Y272906D02*
D03*
Y274874D02*
D03*
Y276843D02*
D03*
Y278811D02*
D03*
Y280780D02*
D03*
Y282748D02*
D03*
Y284717D02*
D03*
Y286685D02*
D03*
Y288654D02*
D03*
Y290622D02*
D03*
X386882D02*
D03*
Y288654D02*
D03*
Y286685D02*
D03*
Y284717D02*
D03*
Y282748D02*
D03*
Y280780D02*
D03*
Y278811D02*
D03*
Y276843D02*
D03*
Y274874D02*
D03*
Y272906D02*
D03*
Y270937D02*
D03*
Y268969D02*
D03*
Y267000D02*
D03*
Y265032D02*
D03*
Y263063D02*
D03*
Y261094D02*
D03*
Y259126D02*
D03*
Y257157D02*
D03*
Y255189D02*
D03*
Y253220D02*
D03*
Y251252D02*
D03*
Y249283D02*
D03*
Y247315D02*
D03*
Y245346D02*
D03*
Y243378D02*
D03*
D21*
X440622Y297118D02*
D03*
X438654D02*
D03*
X436685D02*
D03*
X434717D02*
D03*
X432748D02*
D03*
X430780D02*
D03*
X428811D02*
D03*
X426843D02*
D03*
X424874D02*
D03*
X422906D02*
D03*
X420937D02*
D03*
X418969D02*
D03*
X417000D02*
D03*
X415032D02*
D03*
X413063D02*
D03*
X411094D02*
D03*
X409126D02*
D03*
X407157D02*
D03*
X405189D02*
D03*
X403220D02*
D03*
X401252D02*
D03*
X399283D02*
D03*
X397315D02*
D03*
X395346D02*
D03*
X393378D02*
D03*
Y236882D02*
D03*
X395346D02*
D03*
X397315D02*
D03*
X399283D02*
D03*
X401252D02*
D03*
X403220D02*
D03*
X405189D02*
D03*
X407157D02*
D03*
X409126D02*
D03*
X411094D02*
D03*
X413063D02*
D03*
X415032D02*
D03*
X417000D02*
D03*
X418969D02*
D03*
X420937D02*
D03*
X422906D02*
D03*
X424874D02*
D03*
X426843D02*
D03*
X428811D02*
D03*
X430780D02*
D03*
X432748D02*
D03*
X434717D02*
D03*
X436685D02*
D03*
X438654D02*
D03*
X440622D02*
D03*
D22*
X542500Y374000D02*
D03*
Y367300D02*
D03*
D23*
X528705Y386500D02*
D03*
Y381500D02*
D03*
Y376500D02*
D03*
Y371500D02*
D03*
X509295D02*
D03*
Y376500D02*
D03*
Y381500D02*
D03*
Y386500D02*
D03*
D24*
X484201Y162000D02*
D03*
X446799D02*
D03*
D25*
X453500Y140000D02*
D03*
X459405D02*
D03*
X478453Y139500D02*
D03*
X472547D02*
D03*
D26*
X400425Y109500D02*
D03*
X427000D02*
D03*
D27*
X409185D02*
D03*
D28*
X419815D02*
D03*
D29*
X403919Y119638D02*
D03*
X423506D02*
D03*
D30*
X408594Y119972D02*
D03*
X411154D02*
D03*
X413713D02*
D03*
X416272D02*
D03*
X418831D02*
D03*
D31*
X411413Y166000D02*
D03*
X418500D02*
D03*
X411413Y177236D02*
D03*
X418500D02*
D03*
D32*
X399283Y188205D02*
D03*
X393569D02*
D03*
X399283Y199000D02*
D03*
X393569D02*
D03*
X399000Y221500D02*
D03*
X393285D02*
D03*
X399283Y177236D02*
D03*
X393569D02*
D03*
D33*
X433961Y219000D02*
D03*
X429039D02*
D03*
X472500Y224500D02*
D03*
X467579D02*
D03*
X416421Y189500D02*
D03*
X411500D02*
D03*
D34*
X450177Y208327D02*
D03*
X455177D02*
D03*
X485177Y186673D02*
D03*
X480177Y208327D02*
D03*
Y186673D02*
D03*
X470177D02*
D03*
X485177Y208327D02*
D03*
X475177Y186673D02*
D03*
Y208327D02*
D03*
X470177D02*
D03*
X460177D02*
D03*
X465177Y186673D02*
D03*
X460177D02*
D03*
X450177D02*
D03*
X465177Y208327D02*
D03*
X455177Y186673D02*
D03*
D35*
X530150Y329142D02*
D03*
X498850D02*
D03*
X530150Y346858D02*
D03*
X498850D02*
D03*
D36*
X436331Y324650D02*
D03*
X427669D02*
D03*
Y318350D02*
D03*
X436331D02*
D03*
D37*
X439000Y337000D02*
D03*
X431126D02*
D03*
D38*
X448059Y323838D02*
D03*
Y318123D02*
D03*
X414500Y318643D02*
D03*
Y324357D02*
D03*
D39*
X410437Y354555D02*
D03*
Y361445D02*
D03*
X419311Y354555D02*
D03*
Y361445D02*
D03*
X401563Y354555D02*
D03*
Y361445D02*
D03*
X355252Y354555D02*
D03*
Y361445D02*
D03*
X364126Y354555D02*
D03*
Y361445D02*
D03*
X373000Y354555D02*
D03*
Y361445D02*
D03*
X382567Y354555D02*
D03*
Y361445D02*
D03*
X392689Y354555D02*
D03*
Y361445D02*
D03*
D40*
X598637Y190500D02*
D03*
X590363D02*
D03*
X599637Y253000D02*
D03*
X591363D02*
D03*
X598174Y377500D02*
D03*
X589899D02*
D03*
X599137Y127000D02*
D03*
X590863D02*
D03*
X591363Y317000D02*
D03*
X599637D02*
D03*
D41*
X627037Y394382D02*
D03*
Y419618D02*
D03*
X627500Y206382D02*
D03*
Y231618D02*
D03*
X630500Y139882D02*
D03*
Y165118D02*
D03*
X628000Y293118D02*
D03*
Y267882D02*
D03*
X631000Y350500D02*
D03*
Y325264D02*
D03*
D56*
X534500Y439500D02*
D03*
Y429658D02*
D03*
Y419815D02*
D03*
X502000Y439500D02*
D03*
Y429658D02*
D03*
Y419815D02*
D03*
X535500Y205815D02*
D03*
Y215657D02*
D03*
Y225500D02*
D03*
Y235343D02*
D03*
Y245185D02*
D03*
D57*
X534500Y409972D02*
D03*
X502000D02*
D03*
X535500Y255028D02*
D03*
D61*
X493441Y281201D02*
D03*
D62*
Y271201D02*
D03*
Y261201D02*
D03*
X483441Y281201D02*
D03*
Y271201D02*
D03*
Y261201D02*
D03*
D67*
X572000Y444500D02*
D03*
X629500Y126000D02*
D03*
X566500Y248500D02*
D03*
X567500Y223000D02*
D03*
X565000Y125500D02*
D03*
X555000Y383500D02*
D03*
X550500Y301000D02*
D03*
X518000Y177000D02*
D03*
X530500D02*
D03*
X552500Y247000D02*
D03*
X451500Y386000D02*
D03*
X610000Y445500D02*
D03*
X476000Y240000D02*
D03*
X500500Y224500D02*
D03*
X569500Y416000D02*
D03*
X393500Y310000D02*
D03*
X352000Y295000D02*
D03*
X562500Y111500D02*
D03*
X415000Y444000D02*
D03*
X398500D02*
D03*
X348000Y268500D02*
D03*
X465500Y370500D02*
D03*
X349500Y247000D02*
D03*
D70*
X681493Y208129D02*
D03*
X661808D02*
D03*
Y268905D02*
D03*
X681493D02*
D03*
X682030Y333129D02*
D03*
X662345D02*
D03*
X682030Y397405D02*
D03*
X662345D02*
D03*
X681493Y145629D02*
D03*
X661808D02*
D03*
D71*
X681493Y228129D02*
D03*
X661808D02*
D03*
Y288905D02*
D03*
X681493D02*
D03*
X682030Y353129D02*
D03*
X662345D02*
D03*
X682030Y417405D02*
D03*
X662345D02*
D03*
X533276Y117642D02*
D03*
Y137327D02*
D03*
X681493Y165629D02*
D03*
X661808D02*
D03*
D72*
X468000Y417000D02*
D03*
D73*
X443000D02*
D03*
D74*
X354500Y112500D02*
D03*
X689000Y110500D02*
D03*
X690000Y440000D02*
D03*
X355000Y438500D02*
D03*
D75*
X400933Y398752D02*
D03*
Y406626D02*
D03*
Y414500D02*
D03*
Y422374D02*
D03*
Y430248D02*
D03*
X380067Y398752D02*
D03*
Y406626D02*
D03*
Y414500D02*
D03*
Y422374D02*
D03*
D76*
Y430248D02*
D03*
D77*
X513276Y117642D02*
D03*
Y137327D02*
D03*
D78*
X450500Y116681D02*
D03*
X460500D02*
D03*
X470500D02*
D03*
D79*
X480500D02*
D03*
M02*
