G04*
G04 #@! TF.GenerationSoftware,Altium Limited,Altium Designer,24.6.1 (21)*
G04*
G04 Layer_Color=128*
%FSLAX25Y25*%
%MOIN*%
G70*
G04*
G04 #@! TF.SameCoordinates,02B8DA6F-49FF-4BAE-8194-33363A00AC8D*
G04*
G04*
G04 #@! TF.FilePolarity,Positive*
G04*
G01*
G75*
%ADD14C,0.00500*%
D14*
X678934Y208129D02*
X684053D01*
X681493Y205570D02*
Y210688D01*
X678934Y228129D02*
X684053D01*
X681493Y225570D02*
Y230689D01*
X659249Y228129D02*
X664367D01*
X661808Y225570D02*
Y230689D01*
X659249Y208129D02*
X664367D01*
X661808Y205570D02*
Y210688D01*
X659249Y268905D02*
X664367D01*
X661808Y266346D02*
Y271464D01*
X659249Y288905D02*
X664367D01*
X661808Y286346D02*
Y291464D01*
X678934Y288905D02*
X684053D01*
X681493Y286346D02*
Y291464D01*
X678934Y268905D02*
X684053D01*
X681493Y266346D02*
Y271464D01*
X679471Y333129D02*
X684589D01*
X682030Y330570D02*
Y335688D01*
X679471Y353129D02*
X684589D01*
X682030Y350570D02*
Y355689D01*
X659786Y353129D02*
X664904D01*
X662345Y350570D02*
Y355689D01*
X659786Y333129D02*
X664904D01*
X662345Y330570D02*
Y335688D01*
X679471Y397405D02*
X684589D01*
X682030Y394846D02*
Y399964D01*
X679471Y417405D02*
X684589D01*
X682030Y414846D02*
Y419964D01*
X659786Y417405D02*
X664904D01*
X662345Y414846D02*
Y419964D01*
X659786Y397405D02*
X664904D01*
X662345Y394846D02*
Y399964D01*
X465441Y417000D02*
X470559D01*
X468000Y414441D02*
Y419559D01*
X440441Y417000D02*
X445559D01*
X443000Y414441D02*
Y419559D01*
X532728Y439500D02*
X536272D01*
X534500Y437728D02*
Y441272D01*
X532728Y429658D02*
X536272D01*
X534500Y427886D02*
Y431429D01*
X532728Y419815D02*
X536272D01*
X534500Y418043D02*
Y421587D01*
X532728Y409972D02*
X536272D01*
X534500Y408201D02*
Y411744D01*
X500228Y439500D02*
X503772D01*
X502000Y437728D02*
Y441272D01*
X500228Y429658D02*
X503772D01*
X502000Y427886D02*
Y431429D01*
X500228Y419815D02*
X503772D01*
X502000Y418043D02*
Y421587D01*
X500228Y409972D02*
X503772D01*
X502000Y408201D02*
Y411744D01*
X533728Y205815D02*
X537272D01*
X535500Y204043D02*
Y207587D01*
X533728Y215657D02*
X537272D01*
X535500Y213886D02*
Y217429D01*
X533728Y225500D02*
X537272D01*
X535500Y223728D02*
Y227272D01*
X533728Y235343D02*
X537272D01*
X535500Y233571D02*
Y237114D01*
X533728Y245185D02*
X537272D01*
X535500Y243413D02*
Y246957D01*
X533728Y255028D02*
X537272D01*
X535500Y253256D02*
Y256799D01*
X349500Y112500D02*
X359500D01*
X354500Y107500D02*
Y117500D01*
X684000Y110500D02*
X694000D01*
X689000Y105500D02*
Y115500D01*
X685000Y440000D02*
X695000D01*
X690000Y435000D02*
Y445000D01*
X350000Y438500D02*
X360000D01*
X355000Y433500D02*
Y443500D01*
X399536Y398752D02*
X402331D01*
X400933Y397354D02*
Y400150D01*
X399536Y406626D02*
X402331D01*
X400933Y405228D02*
Y408024D01*
X399536Y414500D02*
X402331D01*
X400933Y413102D02*
Y415898D01*
X399536Y422374D02*
X402331D01*
X400933Y420976D02*
Y423772D01*
X399536Y430248D02*
X402331D01*
X400933Y428850D02*
Y431646D01*
X378669Y398752D02*
X381465D01*
X380067Y397354D02*
Y400150D01*
X378669Y406626D02*
X381465D01*
X380067Y405228D02*
Y408024D01*
X378669Y414500D02*
X381465D01*
X380067Y413102D02*
Y415898D01*
X378669Y422374D02*
X381465D01*
X380067Y420976D02*
Y423772D01*
X378669Y430248D02*
X381465D01*
X380067Y428850D02*
Y431646D01*
X491472Y281201D02*
X495409D01*
X493441Y279233D02*
Y283170D01*
X491472Y271201D02*
X495409D01*
X493441Y269233D02*
Y273170D01*
X491472Y261201D02*
X495409D01*
X493441Y259233D02*
Y263170D01*
X481472Y281201D02*
X485409D01*
X483441Y279233D02*
Y283170D01*
X481472Y271201D02*
X485409D01*
X483441Y269233D02*
Y273170D01*
X481472Y261201D02*
X485409D01*
X483441Y259233D02*
Y263170D01*
X510717Y117642D02*
X515835D01*
X513276Y115083D02*
Y120201D01*
X530717Y117642D02*
X535835D01*
X533276Y115083D02*
Y120201D01*
X530717Y137327D02*
X535835D01*
X533276Y134768D02*
Y139886D01*
X510717Y137327D02*
X515835D01*
X513276Y134768D02*
Y139886D01*
X448531Y116681D02*
X452468D01*
X450500Y114713D02*
Y118650D01*
X458532Y116681D02*
X462468D01*
X460500Y114713D02*
Y118650D01*
X478532Y116681D02*
X482469D01*
X480500Y114713D02*
Y118650D01*
X468532Y116681D02*
X472469D01*
X470500Y114713D02*
Y118650D01*
X678934Y145629D02*
X684053D01*
X681493Y143070D02*
Y148188D01*
X678934Y165629D02*
X684053D01*
X681493Y163070D02*
Y168188D01*
X659249Y165629D02*
X664367D01*
X661808Y163070D02*
Y168188D01*
X659249Y145629D02*
X664367D01*
X661808Y143070D02*
Y148188D01*
X483600Y386000D02*
X486400D01*
X485000Y384600D02*
Y387400D01*
X492141Y380500D02*
X494941D01*
X493541Y379100D02*
Y381900D01*
X483600Y438500D02*
X486400D01*
X485000Y437100D02*
Y439900D01*
X498600Y243500D02*
X501400D01*
X500000Y242100D02*
Y244900D01*
X518474Y243500D02*
X521274D01*
X519874Y242100D02*
Y244900D01*
X454100Y444000D02*
X456900D01*
X455500Y442600D02*
Y445400D01*
X457100Y427000D02*
X459900D01*
X458500Y425600D02*
Y428400D01*
X436875Y331225D02*
X439675D01*
X438275Y329825D02*
Y332625D01*
X466600Y398500D02*
X469400D01*
X468000Y397100D02*
Y399900D01*
X454600Y410000D02*
X457400D01*
X456000Y408600D02*
Y411400D01*
X555600Y397500D02*
X558400D01*
X557000Y396100D02*
Y398900D01*
X539600Y441500D02*
X542400D01*
X541000Y440100D02*
Y442900D01*
X459600Y387000D02*
X462400D01*
X461000Y385600D02*
Y388400D01*
X476100Y231000D02*
X478900D01*
X477500Y229600D02*
Y232400D01*
X553100Y235500D02*
X555900D01*
X554500Y234100D02*
Y236900D01*
X503100Y209000D02*
X505900D01*
X504500Y207600D02*
Y210400D01*
X502600Y190500D02*
X505400D01*
X504000Y189100D02*
Y191900D01*
X523100Y182000D02*
X525900D01*
X524500Y180600D02*
Y183400D01*
X354600Y262500D02*
X357400D01*
X356000Y261100D02*
Y263900D01*
X432100Y423500D02*
X434900D01*
X433500Y422100D02*
Y424900D01*
X422600Y312500D02*
X425400D01*
X424000Y311100D02*
Y313900D01*
X413975Y274925D02*
X416775D01*
X415375Y273525D02*
Y276325D01*
X378600Y295000D02*
X381400D01*
X380000Y293600D02*
Y296400D01*
X398600Y306000D02*
X401400D01*
X400000Y304600D02*
Y307400D01*
X551100Y111500D02*
X553900D01*
X552500Y110100D02*
Y112900D01*
X425100Y255500D02*
X427900D01*
X426500Y254100D02*
Y256900D01*
X355600Y246500D02*
X358400D01*
X357000Y245100D02*
Y247900D01*
X419600Y320357D02*
X422400D01*
X421000Y318957D02*
Y321757D01*
X430125Y244525D02*
X432925D01*
X431525Y243125D02*
Y245925D01*
X436100Y252500D02*
X438900D01*
X437500Y251100D02*
Y253900D01*
X438500Y286181D02*
X441300D01*
X439900Y284781D02*
Y287581D01*
X438800Y279000D02*
X441600D01*
X440200Y277600D02*
Y280400D01*
X463100Y281500D02*
X465900D01*
X464500Y280100D02*
Y282900D01*
X463100Y289000D02*
X465900D01*
X464500Y287600D02*
Y290400D01*
X453100Y283000D02*
X455900D01*
X454500Y281600D02*
Y284400D01*
X464100Y301000D02*
X466900D01*
X465500Y299600D02*
Y302400D01*
X456600Y294050D02*
X459400D01*
X458000Y292650D02*
Y295450D01*
X449100Y302758D02*
X451900D01*
X450500Y301358D02*
Y304157D01*
X483100Y378500D02*
X485900D01*
X484500Y377100D02*
Y379900D01*
X499600Y370500D02*
X502400D01*
X501000Y369100D02*
Y371900D01*
X495600Y393000D02*
X498400D01*
X497000Y391600D02*
Y394400D01*
X507100Y393000D02*
X509900D01*
X508500Y391600D02*
Y394400D01*
X516600Y394000D02*
X519400D01*
X518000Y392600D02*
Y395400D01*
X525100Y398500D02*
X527900D01*
X526500Y397100D02*
Y399900D01*
X501100Y402000D02*
X503900D01*
X502500Y400600D02*
Y403400D01*
X516600Y406500D02*
X519400D01*
X518000Y405100D02*
Y407900D01*
X434901Y273714D02*
X437701D01*
X436301Y272314D02*
Y275114D01*
X438500Y269555D02*
X441300D01*
X439900Y268155D02*
Y270955D01*
X452258Y248642D02*
X455058D01*
X453658Y247242D02*
Y250042D01*
X448965Y236564D02*
X451764D01*
X450364Y235164D02*
Y237965D01*
X464300Y270400D02*
X467100D01*
X465700Y269000D02*
Y271800D01*
X465500Y255300D02*
X468300D01*
X466900Y253900D02*
Y256700D01*
X454500Y269900D02*
X457300D01*
X455900Y268500D02*
Y271300D01*
X488100Y296500D02*
X490900D01*
X489500Y295100D02*
Y297900D01*
X472100Y179000D02*
X474900D01*
X473500Y177600D02*
Y180400D01*
X462100Y378500D02*
X464900D01*
X463500Y377100D02*
Y379900D01*
X372037Y281500D02*
X374837D01*
X373437Y280100D02*
Y282900D01*
X440100Y210000D02*
X442900D01*
X441500Y208600D02*
Y211400D01*
X376100Y237500D02*
X378900D01*
X377500Y236100D02*
Y238900D01*
X450604Y296486D02*
X453404D01*
X452004Y295086D02*
Y297886D01*
X439600Y181000D02*
X442400D01*
X441000Y179600D02*
Y182400D01*
X440100Y174000D02*
X442900D01*
X441500Y172600D02*
Y175400D01*
X452100Y176000D02*
X454900D01*
X453500Y174600D02*
Y177400D01*
X416100Y407100D02*
X418900D01*
X417500Y405700D02*
Y408500D01*
X553982Y421100D02*
X556782D01*
X555382Y419700D02*
Y422500D01*
X545124Y311800D02*
X547924D01*
X546524Y310400D02*
Y313200D01*
X510800Y444700D02*
X513600D01*
X512200Y443300D02*
Y446100D01*
X518900Y203878D02*
X521700D01*
X520300Y202478D02*
Y205278D01*
X515400Y220600D02*
X518200D01*
X516800Y219200D02*
Y222000D01*
X549500Y206100D02*
X552300D01*
X550900Y204700D02*
Y207500D01*
X520800Y227500D02*
X523600D01*
X522200Y226100D02*
Y228900D01*
X460600Y261000D02*
X463400D01*
X462000Y259600D02*
Y262400D01*
X393035Y265032D02*
X395835D01*
X394435Y263632D02*
Y266432D01*
X401700Y260600D02*
X404500D01*
X403100Y259200D02*
Y262000D01*
X432900Y286400D02*
X435700D01*
X434300Y285000D02*
Y287800D01*
X427100Y138000D02*
X429900D01*
X428500Y136600D02*
Y139400D01*
X368600Y274500D02*
X371400D01*
X370000Y273100D02*
Y275900D01*
X382600Y159000D02*
X385400D01*
X384000Y157600D02*
Y160400D01*
X466100Y176000D02*
X468900D01*
X467500Y174600D02*
Y177400D01*
X416100Y154500D02*
X418900D01*
X417500Y153100D02*
Y155900D01*
X431000Y304400D02*
X433800D01*
X432400Y303000D02*
Y305800D01*
X464825Y168725D02*
X467625D01*
X466225Y167325D02*
Y170125D01*
X554182Y261718D02*
X556982D01*
X555582Y260318D02*
Y263118D01*
X558000Y211200D02*
X560800D01*
X559400Y209800D02*
Y212600D01*
X559700Y430200D02*
X562500D01*
X561100Y428800D02*
Y431600D01*
M02*
