G04*
G04 #@! TF.GenerationSoftware,Altium Limited,Altium Designer,24.6.1 (21)*
G04*
G04 Layer_Color=32768*
%FSLAX25Y25*%
%MOIN*%
G70*
G04*
G04 #@! TF.SameCoordinates,02B8DA6F-49FF-4BAE-8194-33363A00AC8D*
G04*
G04*
G04 #@! TF.FilePolarity,Positive*
G04*
G01*
G75*
%ADD11C,0.00394*%
D11*
X658462Y239822D02*
X688974D01*
Y241791D01*
X693107D01*
Y239822D02*
Y241791D01*
Y239822D02*
X695273D01*
Y235885D02*
Y239822D01*
Y235885D02*
X697241D01*
X658462Y239822D02*
Y241791D01*
X650194D02*
X658462D01*
X650194Y239822D02*
Y241791D01*
X648029Y239822D02*
X650194D01*
X697241Y195885D02*
Y235885D01*
X648029Y195885D02*
X697241D01*
X648029D02*
Y239822D01*
Y256661D02*
Y300598D01*
Y256661D02*
X697241D01*
Y296661D01*
X648029Y300598D02*
X650194D01*
Y302566D01*
X658462D01*
Y300598D02*
Y302566D01*
X695273Y296661D02*
X697241D01*
X695273D02*
Y300598D01*
X693107D02*
X695273D01*
X693107D02*
Y302567D01*
X688974D02*
X693107D01*
X688974Y300598D02*
Y302567D01*
X658462Y300598D02*
X688974D01*
X658998Y364822D02*
X689510D01*
Y366791D01*
X693644D01*
Y364822D02*
Y366791D01*
Y364822D02*
X695809D01*
Y360885D02*
Y364822D01*
Y360885D02*
X697778D01*
X658998Y364822D02*
Y366791D01*
X650731D02*
X658998D01*
X650731Y364822D02*
Y366791D01*
X648565Y364822D02*
X650731D01*
X697778Y320885D02*
Y360885D01*
X648565Y320885D02*
X697778D01*
X648565D02*
Y364822D01*
X658998Y429098D02*
X689510D01*
Y431067D01*
X693644D01*
Y429098D02*
Y431067D01*
Y429098D02*
X695809D01*
Y425161D02*
Y429098D01*
Y425161D02*
X697778D01*
X658998Y429098D02*
Y431066D01*
X650731D02*
X658998D01*
X650731Y429098D02*
Y431066D01*
X648565Y429098D02*
X650731D01*
X697778Y385161D02*
Y425161D01*
X648565Y385161D02*
X697778D01*
X648565D02*
Y429098D01*
X544969Y110161D02*
Y140673D01*
Y110161D02*
X546937D01*
Y106028D02*
Y110161D01*
X544969Y106028D02*
X546937D01*
X544969Y103862D02*
Y106028D01*
X541032Y103862D02*
X544969D01*
X541032Y101894D02*
Y103862D01*
X544969Y140673D02*
X546937D01*
Y148941D01*
X544969D02*
X546937D01*
X544969D02*
Y151106D01*
X501032Y101894D02*
X541032D01*
X501032D02*
Y151106D01*
X544969D01*
X445421Y104083D02*
X485579D01*
Y126917D01*
X445421D02*
X485579D01*
X445421Y104083D02*
Y126917D01*
X658462Y177322D02*
X688974D01*
Y179291D01*
X693107D01*
Y177322D02*
Y179291D01*
Y177322D02*
X695273D01*
Y173385D02*
Y177322D01*
Y173385D02*
X697241D01*
X658462Y177322D02*
Y179291D01*
X650194D02*
X658462D01*
X650194Y177322D02*
Y179291D01*
X648029Y177322D02*
X650194D01*
X697241Y133385D02*
Y173385D01*
X648029Y133385D02*
X697241D01*
X648029D02*
Y177322D01*
M02*
