G04*
G04 #@! TF.GenerationSoftware,Altium Limited,Altium Designer,24.6.1 (21)*
G04*
G04 Layer_Physical_Order=1*
G04 Layer_Color=255*
%FSLAX25Y25*%
%MOIN*%
G70*
G04*
G04 #@! TF.SameCoordinates,02B8DA6F-49FF-4BAE-8194-33363A00AC8D*
G04*
G04*
G04 #@! TF.FilePolarity,Positive*
G04*
G01*
G75*
%ADD15C,0.01000*%
%ADD16R,0.05500X0.09000*%
%ADD17R,0.22400X0.24300*%
%ADD18R,0.05315X0.07480*%
%ADD19R,0.04528X0.04528*%
%ADD20O,0.05118X0.00984*%
%ADD21O,0.00984X0.05118*%
%ADD22R,0.05151X0.03175*%
%ADD23R,0.07795X0.02087*%
%ADD24R,0.22047X0.08268*%
%ADD25R,0.03740X0.05315*%
%ADD26R,0.06496X0.05118*%
%ADD27R,0.07087X0.07480*%
%ADD28R,0.03937X0.07480*%
%ADD29R,0.05610X0.06102*%
%ADD30R,0.01772X0.05433*%
%ADD31R,0.05906X0.06102*%
%ADD32R,0.04152X0.05339*%
%ADD33R,0.02953X0.03543*%
G04:AMPARAMS|DCode=34|XSize=51.58mil|YSize=24.41mil|CornerRadius=3.05mil|HoleSize=0mil|Usage=FLASHONLY|Rotation=90.000|XOffset=0mil|YOffset=0mil|HoleType=Round|Shape=RoundedRectangle|*
%AMROUNDEDRECTD34*
21,1,0.05158,0.01831,0,0,90.0*
21,1,0.04547,0.02441,0,0,90.0*
1,1,0.00610,0.00915,0.02274*
1,1,0.00610,0.00915,-0.02274*
1,1,0.00610,-0.00915,-0.02274*
1,1,0.00610,-0.00915,0.02274*
%
%ADD34ROUNDEDRECTD34*%
%ADD35R,0.06102X0.05118*%
%ADD36R,0.05512X0.04724*%
%ADD37R,0.04724X0.05709*%
%ADD38R,0.05339X0.04152*%
%ADD39R,0.05709X0.04528*%
%ADD40R,0.04750X0.05938*%
%ADD41R,0.12598X0.06772*%
%ADD56C,0.05512*%
%ADD57R,0.05512X0.05512*%
%ADD61R,0.06102X0.06102*%
%ADD62C,0.06102*%
%ADD67C,0.04724*%
%ADD68C,0.01181*%
%ADD69C,0.03000*%
G04:AMPARAMS|DCode=70|XSize=76.77mil|YSize=76.77mil|CornerRadius=19.19mil|HoleSize=0mil|Usage=FLASHONLY|Rotation=90.000|XOffset=0mil|YOffset=0mil|HoleType=Round|Shape=RoundedRectangle|*
%AMROUNDEDRECTD70*
21,1,0.07677,0.03839,0,0,90.0*
21,1,0.03839,0.07677,0,0,90.0*
1,1,0.03839,0.01919,0.01919*
1,1,0.03839,0.01919,-0.01919*
1,1,0.03839,-0.01919,-0.01919*
1,1,0.03839,-0.01919,0.01919*
%
%ADD70ROUNDEDRECTD70*%
%ADD71C,0.07677*%
%ADD72R,0.07087X0.07087*%
%ADD73C,0.07087*%
%ADD74C,0.11000*%
%ADD75C,0.04370*%
%ADD76R,0.04370X0.04370*%
G04:AMPARAMS|DCode=77|XSize=76.77mil|YSize=76.77mil|CornerRadius=19.19mil|HoleSize=0mil|Usage=FLASHONLY|Rotation=0.000|XOffset=0mil|YOffset=0mil|HoleType=Round|Shape=RoundedRectangle|*
%AMROUNDEDRECTD77*
21,1,0.07677,0.03839,0,0,0.0*
21,1,0.03839,0.07677,0,0,0.0*
1,1,0.03839,0.01919,-0.01919*
1,1,0.03839,-0.01919,-0.01919*
1,1,0.03839,-0.01919,0.01919*
1,1,0.03839,0.01919,0.01919*
%
%ADD77ROUNDEDRECTD77*%
%ADD78C,0.05906*%
G04:AMPARAMS|DCode=79|XSize=59.06mil|YSize=59.06mil|CornerRadius=14.76mil|HoleSize=0mil|Usage=FLASHONLY|Rotation=0.000|XOffset=0mil|YOffset=0mil|HoleType=Round|Shape=RoundedRectangle|*
%AMROUNDEDRECTD79*
21,1,0.05906,0.02953,0,0,0.0*
21,1,0.02953,0.05906,0,0,0.0*
1,1,0.02953,0.01476,-0.01476*
1,1,0.02953,-0.01476,-0.01476*
1,1,0.02953,-0.01476,0.01476*
1,1,0.02953,0.01476,0.01476*
%
%ADD79ROUNDEDRECTD79*%
%ADD80C,0.05000*%
D15*
X485000Y386000D02*
X499000D01*
X471000D02*
X485000D01*
X501555Y383445D02*
X503000Y384891D01*
X498000Y377672D02*
Y378082D01*
X502109Y382191D01*
Y383891D01*
X483441Y363113D02*
X498000Y377672D01*
X483441Y281201D02*
Y363113D01*
X501555Y384445D02*
X502109Y383891D01*
X503000Y384891D02*
Y395500D01*
X499000Y386000D02*
X500555Y384445D01*
X501555D01*
X485000Y438500D02*
X490500D01*
X493765Y435235D01*
Y432581D02*
Y435235D01*
Y432581D02*
X501956Y424390D01*
X463500Y378500D02*
X471000Y386000D01*
X529925Y424390D02*
X534500Y419815D01*
X501956Y424390D02*
X529925D01*
X545500Y437000D02*
X565048D01*
X565634Y437586D02*
Y443414D01*
X565048Y437000D02*
X565634Y437586D01*
X502000Y439500D02*
X534500D01*
X533680Y429658D02*
X534500D01*
X502000D02*
X533680D01*
X520244Y399355D02*
X525605Y404716D01*
X535502D01*
X506855Y399355D02*
X520244D01*
X440622Y236882D02*
Y240378D01*
Y210878D02*
Y236882D01*
X540888Y396845D02*
Y399330D01*
X535502Y404716D02*
X540888Y399330D01*
X531559Y387516D02*
X540888Y396845D01*
X561100Y430200D02*
X594700D01*
X610048Y445548D01*
X519874Y243500D02*
X522274Y241100D01*
X500000Y239000D02*
Y243500D01*
X522274Y241100D02*
X526359Y245185D01*
X554500Y235500D02*
Y240670D01*
Y226100D02*
Y235500D01*
X535500Y225500D02*
X541374Y219626D01*
X531658Y231500D02*
X535500Y235343D01*
X526359Y245185D02*
X535500D01*
X526200Y231500D02*
X531658D01*
X522200Y227500D02*
X526200Y231500D01*
X523343Y215657D02*
X536499D01*
X518400Y220600D02*
X523343Y215657D01*
X415000Y444000D02*
X455500D01*
X528705Y381500D02*
X536414D01*
X525850D02*
X528705D01*
X438275Y331225D02*
Y336275D01*
X439000Y337000D01*
X406811Y444000D02*
X427311Y423500D01*
X398500Y444000D02*
X406811D01*
X427311Y423500D02*
X433500D01*
X468000Y398500D02*
X471500Y402000D01*
X502500D01*
X456000Y410000D02*
X456765Y409235D01*
X557000Y396418D02*
Y397500D01*
X555000Y383500D02*
Y394418D01*
X557000Y396418D01*
Y397500D02*
X557765Y396735D01*
X560239D01*
X563374Y390150D02*
Y393600D01*
X560239Y396735D02*
X563374Y393600D01*
X541000Y441500D02*
X545500Y437000D01*
X565634Y443414D02*
X566220Y444000D01*
X571500D01*
X572000Y444500D01*
X452000Y386500D02*
X460500D01*
X451500Y386000D02*
X452000Y386500D01*
X460500D02*
X461000Y387000D01*
X629500Y126000D02*
Y138882D01*
X630500Y139882D01*
X629414Y126086D02*
X629500Y126000D01*
X563374Y264000D02*
X566500Y260874D01*
Y248500D02*
Y260874D01*
X564874Y139000D02*
X565000Y138874D01*
Y125500D02*
Y138874D01*
X559700Y211500D02*
Y215200D01*
X567500Y223000D01*
X559400Y211200D02*
X559700Y211500D01*
X555382Y421100D02*
X560482Y416000D01*
X569500D01*
X550000Y301500D02*
Y308324D01*
X546524Y311800D02*
X550000Y308324D01*
Y301500D02*
X550500Y301000D01*
X476000Y233582D02*
Y240000D01*
X477500Y231000D02*
Y232082D01*
X476000Y233582D02*
X477500Y232082D01*
X500250Y224750D02*
X500500Y224500D01*
X500250Y224750D02*
Y238750D01*
X500000Y239000D02*
X500250Y238750D01*
X552500Y242670D02*
X554500Y240670D01*
X548026Y219626D02*
X554500Y226100D01*
X552500Y242670D02*
Y247000D01*
X504250Y190750D02*
Y208750D01*
X504000Y190500D02*
X504250Y190750D01*
Y208750D02*
X504500Y209000D01*
X524500Y182000D02*
X525500D01*
X530500Y177000D01*
X518000D02*
Y200521D01*
X520300Y202821D01*
Y203878D01*
X542500Y374000D02*
X543000Y374500D01*
X473500Y378500D02*
X484500D01*
X465500Y370500D02*
X473500Y378500D01*
X426843Y307510D02*
Y309657D01*
Y297118D02*
Y307510D01*
X424000Y312500D02*
X426843Y309657D01*
X414500Y318643D02*
X414848Y318295D01*
Y315652D02*
X424874Y305626D01*
Y297118D02*
Y305626D01*
X414848Y315652D02*
Y318295D01*
X414500Y318643D02*
X418689D01*
X414961Y312660D02*
X422906Y304716D01*
X414340Y311160D02*
X420937Y304563D01*
X418969Y297118D02*
Y304410D01*
X409000Y317983D02*
X414323Y312660D01*
X409000Y317983D02*
Y344835D01*
X407500Y317361D02*
Y351791D01*
X414323Y312660D02*
X414961D01*
X413719Y309660D02*
X418969Y304410D01*
X407500Y317361D02*
X413701Y311160D01*
X414340D01*
X420937Y297118D02*
Y304563D01*
X422906Y297118D02*
Y304716D01*
X426843Y307510D02*
X432500Y313167D01*
X405500Y317240D02*
Y333427D01*
Y317240D02*
X413080Y309660D01*
X413719D01*
X403220Y287080D02*
X415375Y274925D01*
X352000Y295000D02*
X380000D01*
X394508Y308992D02*
Y310000D01*
Y308992D02*
X396735Y306765D01*
X399235D02*
X400000Y306000D01*
X396735Y306765D02*
X399235D01*
X393500Y310000D02*
X394508D01*
X413063Y297118D02*
Y302680D01*
X411094Y297118D02*
Y302527D01*
X409126Y297118D02*
Y302374D01*
X386000Y325000D02*
X397313Y313687D01*
X397813D01*
X409126Y302374D01*
X391989Y321633D02*
X411094Y302527D01*
X391489Y321633D02*
X391989D01*
X366480Y346641D02*
X391489Y321633D01*
X371657Y343585D02*
X392110Y323133D01*
X392610D01*
X413063Y302680D01*
X418689Y318643D02*
X421000Y316331D01*
X382567Y335554D02*
X415032Y303090D01*
X392689Y327554D02*
X417000Y303243D01*
X447118Y267000D02*
X450400D01*
X467200Y250200D02*
X470400Y253400D01*
X451586Y292486D02*
Y296068D01*
X450043Y247307D02*
X451000Y246350D01*
X447118Y247315D02*
X447126Y247307D01*
X447118Y280780D02*
X450220D01*
X436400Y267200D02*
X437545Y266055D01*
X436400Y267200D02*
Y273615D01*
X436301Y273714D02*
X436400Y273615D01*
X373437Y281500D02*
X383992Y270945D01*
X442360Y273460D02*
X443774Y274874D01*
X439900Y269555D02*
Y270293D01*
X401244Y233744D02*
Y236874D01*
X393285Y225785D02*
X401244Y233744D01*
X438220Y245500D02*
X441088Y248368D01*
X433582Y245500D02*
X438220D01*
X431525Y244525D02*
X432608D01*
X453658Y248642D02*
Y248771D01*
X447118Y251252D02*
X451177D01*
X453658Y248771D01*
X432801Y268333D02*
X436579Y264555D01*
X442907D02*
X443384Y265032D01*
X364500Y325000D02*
X386000D01*
X433961Y219000D02*
X436854D01*
X408083Y352374D02*
Y352791D01*
X443500Y245346D02*
X447118D01*
X409846Y354555D02*
X410437D01*
X443500Y238479D02*
Y245346D01*
X447118Y282748D02*
X447126Y282756D01*
X403220Y229100D02*
Y236882D01*
X461000Y282950D02*
X462000Y283950D01*
Y284800D01*
X453876Y286748D02*
X460052D01*
X443500Y282300D02*
Y284717D01*
X462000Y261000D02*
Y279050D01*
X440200Y279000D02*
X443500Y282300D01*
X459000Y255300D02*
X466900D01*
X452978Y261322D02*
X459000Y255300D01*
X450700Y269000D02*
Y272000D01*
X440622Y210878D02*
X441500Y210000D01*
X435937Y324650D02*
X436331D01*
X432500Y313167D02*
Y321212D01*
X354000Y335500D02*
X364500Y325000D01*
X449794Y272906D02*
X450700Y272000D01*
X386882Y265032D02*
X394435D01*
X461455Y253800D02*
X465055Y250200D01*
X450700Y269000D02*
X452978Y266722D01*
X438654Y220800D02*
Y236882D01*
X432400Y304400D02*
X436258Y308258D01*
X436331Y313331D02*
Y318350D01*
X458200Y253800D02*
X461455D01*
X436854Y219000D02*
X438654Y220800D01*
X464000Y257500D02*
X465700Y259200D01*
X403220Y243200D02*
X406420Y246400D01*
X457600Y260271D02*
X460371Y257500D01*
X386882Y268969D02*
X395931D01*
X366480Y346641D02*
Y352791D01*
X443384Y265032D02*
X447118D01*
X459400Y264124D02*
Y271600D01*
X371657Y343585D02*
Y353212D01*
X439555Y263055D02*
X447110D01*
X401252Y262448D02*
Y297118D01*
X436579Y264555D02*
X442907D01*
X400000Y352992D02*
X401563Y354555D01*
X465700Y259200D02*
Y270400D01*
X453460Y229040D02*
X462900Y219600D01*
X422900Y246400D02*
X439555Y263055D01*
X432801Y276076D02*
X434300Y277575D01*
X364126Y354555D02*
X364717D01*
X449722Y290622D02*
X451586Y292486D01*
X408083Y352791D02*
X409846Y354555D01*
X450400Y267000D02*
X451300Y266100D01*
X407500Y351791D02*
X408083Y352374D01*
X443400Y270937D02*
X447118D01*
X443400Y267169D02*
Y270937D01*
X442286Y266055D02*
X443400Y267169D01*
X453813Y286685D02*
X453876Y286748D01*
X437545Y266055D02*
X442286D01*
X399200Y258898D02*
Y265700D01*
X383992Y270945D02*
X386874D01*
X400000Y338927D02*
X405500Y333427D01*
X451586Y296068D02*
X452004Y296486D01*
X364717Y354555D02*
X366480Y352791D01*
X451057Y276843D02*
X455900Y272000D01*
X399000Y221500D02*
Y224880D01*
X404800Y257100D02*
X428811Y281111D01*
X465055Y250200D02*
X467200D01*
X447118Y290622D02*
X449722D01*
X463842Y308258D02*
X470400Y301700D01*
X400998Y257100D02*
X404800D01*
X418720Y354555D02*
X419311D01*
X447126Y247307D02*
X450043D01*
X428811Y305811D02*
X436331Y313331D01*
X447126Y282756D02*
X454256D01*
X447118Y272906D02*
X449794D01*
X409000Y344835D02*
X418720Y354555D01*
X428811Y297118D02*
Y305811D01*
X461000Y280050D02*
Y282950D01*
Y280050D02*
X462000Y279050D01*
X395931Y268969D02*
X399200Y265700D01*
X436685Y232185D02*
Y236882D01*
X460371Y257500D02*
X464000D01*
X452978Y261322D02*
Y266722D01*
X432801Y268333D02*
Y276076D01*
X433344Y290656D02*
X435644D01*
X457600Y262324D02*
X459400Y264124D01*
X401244Y236874D02*
X401252Y236882D01*
X415032Y297118D02*
Y303090D01*
X442360Y272752D02*
Y273460D01*
X377500Y267000D02*
X386882D01*
X430780Y293220D02*
Y297118D01*
X443774Y274874D02*
X447118D01*
X442144Y253220D02*
X447118D01*
X451300Y260700D02*
X458200Y253800D01*
X392689Y327554D02*
Y354555D01*
X354000Y335500D02*
Y353303D01*
X430780Y293220D02*
X433344Y290656D01*
X450220Y280780D02*
X459400Y271600D01*
X439900Y270293D02*
X442360Y272752D01*
X452940Y229040D02*
X453460D01*
X441088Y248368D02*
Y252165D01*
X456254Y306258D02*
X461000Y301512D01*
X429039Y219000D02*
Y224539D01*
X447118Y288654D02*
X452954D01*
X428811Y281111D02*
Y297118D01*
X447110Y261087D02*
X447118Y261094D01*
X417000Y297118D02*
Y303243D01*
X458000Y293700D02*
Y294050D01*
X406420Y246400D02*
X422900D01*
X399000Y224880D02*
X403220Y229100D01*
X461000Y301512D02*
X464988D01*
X432500Y321212D02*
X435937Y324650D01*
X401252Y262448D02*
X403100Y260600D01*
X444210Y302758D02*
X450500D01*
X457600Y260271D02*
Y262324D01*
X371657Y353212D02*
X373000Y354555D01*
X432608Y244525D02*
X433582Y245500D01*
X433596Y300848D02*
X435811D01*
X386874Y270945D02*
X386882Y270937D01*
X439975Y241025D02*
X440622Y240378D01*
X443500Y284717D02*
X447118D01*
X460052Y286748D02*
X462000Y284800D01*
X428025Y249025D02*
X435000Y256000D01*
X434300Y277575D02*
Y286400D01*
X435000Y256000D02*
X436500D01*
X441088Y252165D02*
X442144Y253220D01*
X429039Y224539D02*
X436685Y232185D01*
X435644Y290656D02*
X436075Y290225D01*
X436258Y308258D02*
X463842D01*
X436500Y256000D02*
X441586Y261087D01*
X452954Y288654D02*
X458000Y293700D01*
X449177Y286685D02*
X453813D01*
X399200Y258898D02*
X400998Y257100D01*
X428025Y243075D02*
X430075Y241025D01*
X432748Y300000D02*
X433596Y300848D01*
X464988Y301512D02*
X465500Y301000D01*
X382567Y335554D02*
Y354555D01*
X451300Y260700D02*
Y266100D01*
X441586Y261087D02*
X447110D01*
X370000Y274500D02*
X377500Y267000D01*
X432748Y297118D02*
Y300000D01*
X447118Y276843D02*
X451057D01*
X430075Y241025D02*
X439975D01*
X447110Y263055D02*
X447118Y263063D01*
X443500Y238479D02*
X452940Y229040D01*
X354000Y353303D02*
X355252Y354555D01*
X440630Y299177D02*
X444210Y302758D01*
X455900Y269900D02*
Y272000D01*
X400000Y338927D02*
Y352992D01*
X428025Y243075D02*
Y249025D01*
X454256Y282756D02*
X454500Y283000D01*
X435811Y300848D02*
X441221Y306258D01*
X456254D01*
X470400Y253400D02*
Y301700D01*
X403220Y236882D02*
Y243200D01*
Y287080D02*
Y297118D01*
X476390Y268252D02*
Y309712D01*
X448000Y334902D02*
X452800Y330102D01*
Y319723D02*
Y330102D01*
X451200Y318123D02*
X452800Y319723D01*
X448059Y318123D02*
X451200D01*
Y334902D02*
X476390Y309712D01*
X448000Y334902D02*
X451200D01*
X441402Y341500D02*
X448000Y334902D01*
X436980Y341500D02*
X441402D01*
X476390Y268252D02*
X483441Y261201D01*
X423850Y318350D02*
X427669D01*
X423414Y317914D02*
X423850Y318350D01*
X422586Y317914D02*
X423414D01*
X421000Y319500D02*
X422586Y317914D01*
X403220Y243200D02*
Y253080D01*
X451000Y237200D02*
Y246350D01*
X493441Y228341D02*
Y261201D01*
X431980Y332547D02*
X436331Y328196D01*
X431487Y332547D02*
X431980D01*
X431487D02*
Y336639D01*
X426500Y255500D02*
X430311Y259311D01*
X421000Y316331D02*
Y319500D01*
Y320357D01*
X436980Y341500D02*
Y394201D01*
X431126Y337000D02*
X431487Y336639D01*
X436331Y324650D02*
Y328196D01*
X428171Y341916D02*
X436980D01*
X439469Y286181D02*
X439900D01*
X435750Y289900D02*
X439469Y286181D01*
X503000Y395500D02*
X506855Y399355D01*
X516500Y388634D02*
X517866Y390000D01*
X516500Y385850D02*
Y388634D01*
X517866Y393866D02*
X518000Y394000D01*
X517866Y390000D02*
Y393866D01*
X531559Y387413D02*
Y387516D01*
X530646Y386500D02*
X531559Y387413D01*
X528705Y386500D02*
X530646D01*
X526500Y395000D02*
Y398500D01*
X523000Y384350D02*
X525850Y381500D01*
X523000Y391500D02*
X526500Y395000D01*
X523000Y384350D02*
Y391500D01*
X457086Y406500D02*
X518000D01*
X525850Y376500D02*
X528705D01*
X516500Y385850D02*
X525850Y376500D01*
X456765Y406820D02*
Y409235D01*
Y406820D02*
X457086Y406500D01*
X399200Y257100D02*
Y258898D01*
Y257100D02*
X403220Y253080D01*
X450364Y236564D02*
X451000Y237200D01*
X536500Y368500D02*
Y373000D01*
X528705Y376500D02*
X529248Y375957D01*
X536500Y368500D02*
X537500Y367500D01*
X529248Y375957D02*
X533543D01*
X537500Y367500D02*
X542300D01*
X533543Y375957D02*
X536500Y373000D01*
X536414Y381500D02*
X537000Y380914D01*
Y375500D02*
Y380914D01*
Y375500D02*
X538500Y374000D01*
X542300Y367500D02*
X542500Y367300D01*
X538500Y374000D02*
X542500D01*
X355300Y361445D02*
Y418800D01*
X375900Y439400D01*
X473500Y179000D02*
Y181082D01*
X475012Y182595D01*
Y186508D02*
X475177Y186673D01*
X475012Y182595D02*
Y186508D01*
X466000Y162000D02*
X478500Y174500D01*
X480177Y176324D02*
Y186673D01*
Y176324D02*
X484201Y172300D01*
X477957Y183859D02*
X478500Y183316D01*
X477957Y183859D02*
Y189487D01*
X478500Y174500D02*
Y183316D01*
X478869Y190400D02*
X484410D01*
X441500Y210000D02*
X449457D01*
X450177Y208327D02*
Y209279D01*
X449457Y210000D02*
X450177Y209279D01*
X430311Y259311D02*
Y287361D01*
X432850Y289900D01*
X435750D01*
X428500Y166000D02*
X437000Y174500D01*
X441000D01*
X441500Y174000D01*
X426500Y166500D02*
X441000Y181000D01*
X428500Y153000D02*
Y166000D01*
X434627Y186673D02*
X450177D01*
X431800Y189500D02*
X434627Y186673D01*
X452275Y168725D02*
X466225D01*
X448500Y172500D02*
X452275Y168725D01*
X448500Y172500D02*
Y176657D01*
X452260Y180417D01*
X452417D01*
X455177Y183177D01*
Y186673D01*
X461728Y183095D02*
X466633D01*
X461047Y182414D02*
X461728Y183095D01*
X454265Y176765D02*
Y179403D01*
X453500Y176000D02*
X454265Y176765D01*
Y179403D02*
X460177Y185315D01*
X459405Y140000D02*
X460000Y139405D01*
Y135500D02*
Y139405D01*
X450500Y126000D02*
X460000Y135500D01*
X450500Y116681D02*
Y126000D01*
X401500Y361445D02*
X401563D01*
X396700Y366245D02*
X401500Y361445D01*
X477957Y189487D02*
X478869Y190400D01*
X468000Y176500D02*
Y180000D01*
X470177Y182177D01*
Y186673D01*
X411413Y165902D02*
Y166000D01*
X408594Y163083D02*
X411413Y165902D01*
X419500Y200000D02*
Y201700D01*
X407689Y198700D02*
Y200000D01*
X412900Y198700D02*
X416200Y195400D01*
X407689Y198700D02*
X412900D01*
X415624Y190297D02*
Y192072D01*
X413809Y193887D02*
X415624Y192072D01*
Y190297D02*
X416421Y189500D01*
X399283Y199000D02*
Y210017D01*
X460177Y185315D02*
Y186673D01*
X416421Y189500D02*
X431800D01*
X416200Y195400D02*
X461377D01*
X403374Y190374D02*
X406887Y193887D01*
X413809D01*
X444800Y151400D02*
X449300D01*
X446799Y162000D02*
X466000D01*
X439900Y156300D02*
Y162000D01*
X446799D01*
X439900Y156300D02*
X444800Y151400D01*
X426500Y154000D02*
Y166500D01*
X461377Y195400D02*
X465177Y191600D01*
Y186673D02*
Y191600D01*
X462900Y197600D02*
X467400Y193100D01*
Y183861D02*
Y193100D01*
X466633Y183095D02*
X467400Y183861D01*
X399283Y188205D02*
Y188798D01*
X400859Y190374D01*
X403374D01*
X461047Y173902D02*
Y182414D01*
Y173902D02*
X466225Y168725D01*
X467500Y176000D02*
X468000Y176500D01*
X396700Y410267D02*
X400933Y414500D01*
X405200Y424100D02*
X407081D01*
X400933Y430248D02*
X405200Y425981D01*
Y424100D02*
Y425981D01*
X556664Y261718D02*
X558946Y264000D01*
X555582Y261718D02*
X556664D01*
X550900Y206100D02*
X564874Y192126D01*
X520300Y203878D02*
X536000D01*
X541374Y219626D02*
X548026D01*
X516800Y220600D02*
X518400D01*
X478453Y139500D02*
Y156252D01*
X449300Y151400D02*
X453500Y147200D01*
Y140000D02*
Y147200D01*
X465177Y215200D02*
X467579Y217602D01*
X465177Y208327D02*
Y215200D01*
X478453Y156252D02*
X484201Y162000D01*
X485177Y186673D02*
Y189633D01*
X484410Y190400D02*
X485177Y189633D01*
X484201Y162000D02*
Y172300D01*
X489600Y224500D02*
X493441Y228341D01*
X462900Y197600D02*
Y219600D01*
X467579Y217602D02*
Y224500D01*
X472500D02*
X489600D01*
X433961Y216161D02*
Y219000D01*
X419500Y201700D02*
X433961Y216161D01*
X399000Y221500D02*
X399077Y218400D01*
X399283Y210017D01*
X418831Y119972D02*
Y121803D01*
X411154Y138654D02*
X426500Y154000D01*
X413713Y119972D02*
Y138213D01*
X428500Y153000D01*
X411154Y119972D02*
Y138654D01*
X408594Y119972D02*
Y163083D01*
X419701Y122673D02*
Y123103D01*
X418831Y121803D02*
X419701Y122673D01*
Y123103D02*
X428500Y131902D01*
X371900Y361445D02*
X373000D01*
X375400Y401959D02*
X380067Y406626D01*
X375400Y383600D02*
Y401959D01*
X371900Y361445D02*
Y414207D01*
X375400Y383600D02*
X382567Y376433D01*
X371900Y414207D02*
X380067Y422374D01*
X407081Y424100D02*
X436980Y394201D01*
X382567Y361445D02*
Y376433D01*
X546524Y311800D02*
X563374Y328650D01*
X396700Y366245D02*
Y410267D01*
X558946Y264000D02*
X563374D01*
X573252Y202500D02*
X585500D01*
X559400Y211200D02*
X564000Y206600D01*
Y202500D02*
Y206600D01*
X564874Y139000D02*
Y192126D01*
X585500Y202008D02*
Y202500D01*
D16*
X603500Y202008D02*
D03*
X585500D02*
D03*
Y139768D02*
D03*
X603500D02*
D03*
X585500Y264150D02*
D03*
X603500D02*
D03*
X586037Y328650D02*
D03*
X604037D02*
D03*
X584537Y390150D02*
D03*
X602537D02*
D03*
D17*
X594500Y227358D02*
D03*
Y165118D02*
D03*
Y289500D02*
D03*
X595037Y354000D02*
D03*
X593537Y415500D02*
D03*
D18*
X419894Y200000D02*
D03*
X407295D02*
D03*
D19*
X572626Y390150D02*
D03*
X563374D02*
D03*
X564000Y202500D02*
D03*
X573252D02*
D03*
X564874Y139000D02*
D03*
X574126D02*
D03*
X563374Y328650D02*
D03*
X572626D02*
D03*
Y264000D02*
D03*
X563374D02*
D03*
D20*
X447118Y243378D02*
D03*
Y245346D02*
D03*
Y247315D02*
D03*
Y249283D02*
D03*
Y251252D02*
D03*
Y253220D02*
D03*
Y255189D02*
D03*
Y257157D02*
D03*
Y259126D02*
D03*
Y261094D02*
D03*
Y263063D02*
D03*
Y265032D02*
D03*
Y267000D02*
D03*
Y268969D02*
D03*
Y270937D02*
D03*
Y272906D02*
D03*
Y274874D02*
D03*
Y276843D02*
D03*
Y278811D02*
D03*
Y280780D02*
D03*
Y282748D02*
D03*
Y284717D02*
D03*
Y286685D02*
D03*
Y288654D02*
D03*
Y290622D02*
D03*
X386882D02*
D03*
Y288654D02*
D03*
Y286685D02*
D03*
Y284717D02*
D03*
Y282748D02*
D03*
Y280780D02*
D03*
Y278811D02*
D03*
Y276843D02*
D03*
Y274874D02*
D03*
Y272906D02*
D03*
Y270937D02*
D03*
Y268969D02*
D03*
Y267000D02*
D03*
Y265032D02*
D03*
Y263063D02*
D03*
Y261094D02*
D03*
Y259126D02*
D03*
Y257157D02*
D03*
Y255189D02*
D03*
Y253220D02*
D03*
Y251252D02*
D03*
Y249283D02*
D03*
Y247315D02*
D03*
Y245346D02*
D03*
Y243378D02*
D03*
D21*
X440622Y297118D02*
D03*
X438654D02*
D03*
X436685D02*
D03*
X434717D02*
D03*
X432748D02*
D03*
X430780D02*
D03*
X428811D02*
D03*
X426843D02*
D03*
X424874D02*
D03*
X422906D02*
D03*
X420937D02*
D03*
X418969D02*
D03*
X417000D02*
D03*
X415032D02*
D03*
X413063D02*
D03*
X411094D02*
D03*
X409126D02*
D03*
X407157D02*
D03*
X405189D02*
D03*
X403220D02*
D03*
X401252D02*
D03*
X399283D02*
D03*
X397315D02*
D03*
X395346D02*
D03*
X393378D02*
D03*
Y236882D02*
D03*
X395346D02*
D03*
X397315D02*
D03*
X399283D02*
D03*
X401252D02*
D03*
X403220D02*
D03*
X405189D02*
D03*
X407157D02*
D03*
X409126D02*
D03*
X411094D02*
D03*
X413063D02*
D03*
X415032D02*
D03*
X417000D02*
D03*
X418969D02*
D03*
X420937D02*
D03*
X422906D02*
D03*
X424874D02*
D03*
X426843D02*
D03*
X428811D02*
D03*
X430780D02*
D03*
X432748D02*
D03*
X434717D02*
D03*
X436685D02*
D03*
X438654D02*
D03*
X440622D02*
D03*
D22*
X542500Y374000D02*
D03*
Y367300D02*
D03*
D23*
X528705Y386500D02*
D03*
Y381500D02*
D03*
Y376500D02*
D03*
Y371500D02*
D03*
X509295D02*
D03*
Y376500D02*
D03*
Y381500D02*
D03*
Y386500D02*
D03*
D24*
X484201Y162000D02*
D03*
X446799D02*
D03*
D25*
X453500Y140000D02*
D03*
X459405D02*
D03*
X478453Y139500D02*
D03*
X472547D02*
D03*
D26*
X400425Y109500D02*
D03*
X427000D02*
D03*
D27*
X409185D02*
D03*
D28*
X419815D02*
D03*
D29*
X403919Y119638D02*
D03*
X423506D02*
D03*
D30*
X408594Y119972D02*
D03*
X411154D02*
D03*
X413713D02*
D03*
X416272D02*
D03*
X418831D02*
D03*
D31*
X411413Y166000D02*
D03*
X418500D02*
D03*
X411413Y177236D02*
D03*
X418500D02*
D03*
D32*
X399283Y188205D02*
D03*
X393569D02*
D03*
X399283Y199000D02*
D03*
X393569D02*
D03*
X399000Y221500D02*
D03*
X393285D02*
D03*
X399283Y177236D02*
D03*
X393569D02*
D03*
D33*
X433961Y219000D02*
D03*
X429039D02*
D03*
X472500Y224500D02*
D03*
X467579D02*
D03*
X416421Y189500D02*
D03*
X411500D02*
D03*
D34*
X450177Y208327D02*
D03*
X455177D02*
D03*
X485177Y186673D02*
D03*
X480177Y208327D02*
D03*
Y186673D02*
D03*
X470177D02*
D03*
X485177Y208327D02*
D03*
X475177Y186673D02*
D03*
Y208327D02*
D03*
X470177D02*
D03*
X460177D02*
D03*
X465177Y186673D02*
D03*
X460177D02*
D03*
X450177D02*
D03*
X465177Y208327D02*
D03*
X455177Y186673D02*
D03*
D35*
X530150Y329142D02*
D03*
X498850D02*
D03*
X530150Y346858D02*
D03*
X498850D02*
D03*
D36*
X436331Y324650D02*
D03*
X427669D02*
D03*
Y318350D02*
D03*
X436331D02*
D03*
D37*
X439000Y337000D02*
D03*
X431126D02*
D03*
D38*
X448059Y323838D02*
D03*
Y318123D02*
D03*
X414500Y318643D02*
D03*
Y324357D02*
D03*
D39*
X410437Y354555D02*
D03*
Y361445D02*
D03*
X419311Y354555D02*
D03*
Y361445D02*
D03*
X401563Y354555D02*
D03*
Y361445D02*
D03*
X355252Y354555D02*
D03*
Y361445D02*
D03*
X364126Y354555D02*
D03*
Y361445D02*
D03*
X373000Y354555D02*
D03*
Y361445D02*
D03*
X382567Y354555D02*
D03*
Y361445D02*
D03*
X392689Y354555D02*
D03*
Y361445D02*
D03*
D40*
X598637Y190500D02*
D03*
X590363D02*
D03*
X599637Y253000D02*
D03*
X591363D02*
D03*
X598174Y377500D02*
D03*
X589899D02*
D03*
X599137Y127000D02*
D03*
X590863D02*
D03*
X591363Y317000D02*
D03*
X599637D02*
D03*
D41*
X627037Y394382D02*
D03*
Y419618D02*
D03*
X627500Y206382D02*
D03*
Y231618D02*
D03*
X630500Y139882D02*
D03*
Y165118D02*
D03*
X628000Y293118D02*
D03*
Y267882D02*
D03*
X631000Y350500D02*
D03*
Y325264D02*
D03*
D56*
X534500Y439500D02*
D03*
Y429658D02*
D03*
Y419815D02*
D03*
X502000Y439500D02*
D03*
Y429658D02*
D03*
Y419815D02*
D03*
X535500Y205815D02*
D03*
Y215657D02*
D03*
Y225500D02*
D03*
Y235343D02*
D03*
Y245185D02*
D03*
D57*
X534500Y409972D02*
D03*
X502000D02*
D03*
X535500Y255028D02*
D03*
D61*
X493441Y281201D02*
D03*
D62*
Y271201D02*
D03*
Y261201D02*
D03*
X483441Y281201D02*
D03*
Y271201D02*
D03*
Y261201D02*
D03*
D67*
X572000Y444500D02*
D03*
X629500Y126000D02*
D03*
X566500Y248500D02*
D03*
X567500Y223000D02*
D03*
X565000Y125500D02*
D03*
X555000Y383500D02*
D03*
X550500Y301000D02*
D03*
X518000Y177000D02*
D03*
X530500D02*
D03*
X552500Y247000D02*
D03*
X451500Y386000D02*
D03*
X610000Y445500D02*
D03*
X476000Y240000D02*
D03*
X500500Y224500D02*
D03*
X569500Y416000D02*
D03*
X393500Y310000D02*
D03*
X352000Y295000D02*
D03*
X562500Y111500D02*
D03*
X415000Y444000D02*
D03*
X398500D02*
D03*
X348000Y268500D02*
D03*
X465500Y370500D02*
D03*
X349500Y247000D02*
D03*
D68*
X463000Y394500D02*
X494467D01*
X450000Y407500D02*
X463000Y394500D01*
X489500Y296500D02*
Y361500D01*
X497409Y369409D01*
Y372410D02*
X501500Y376500D01*
X497409Y369409D02*
Y372410D01*
X501500Y376500D02*
X509295D01*
X492967Y380500D02*
X493541D01*
X494467Y394500D02*
X495967Y393000D01*
X497000D01*
X450000Y407500D02*
Y424000D01*
X453000Y427000D01*
X458500D01*
X347857Y263192D02*
Y268357D01*
Y263192D02*
X348549Y262500D01*
X356000D01*
X347857Y268357D02*
X348000Y268500D01*
X356750Y246750D02*
X357000Y246500D01*
X349750Y246750D02*
X356750D01*
X349500Y247000D02*
X349750Y246750D01*
X438163Y252500D02*
X440852Y255189D01*
X447118D01*
X437500Y252500D02*
X438163D01*
X464500Y281500D02*
Y289000D01*
X484500Y378500D02*
X485000Y378000D01*
X490467D01*
X492967Y380500D01*
X508843Y371047D02*
X509295Y371500D01*
X501547Y371047D02*
X508843D01*
X501000Y370500D02*
X501547Y371047D01*
X508500Y386953D02*
X508953Y386500D01*
X508500Y386953D02*
Y393000D01*
X508953Y386500D02*
X509295D01*
Y376500D02*
Y381500D01*
D69*
X547138Y381862D02*
Y428221D01*
X534000Y429978D02*
X545380D01*
X533680Y429658D02*
X534000Y429978D01*
X545380D02*
X547138Y428221D01*
X530150Y346858D02*
X537243D01*
X393285Y221500D02*
Y222094D01*
Y210383D02*
Y221500D01*
X393569Y174231D02*
Y176643D01*
X516362Y279638D02*
Y298862D01*
X539000Y321500D01*
X510500Y159000D02*
Y242500D01*
X523028Y255028D01*
X535500D01*
X541457Y260984D02*
Y272987D01*
X535500Y255028D02*
X541457Y260984D01*
X539699Y274744D02*
X541457Y272987D01*
X546484Y260984D02*
X578000Y292500D01*
X521256Y274744D02*
X539699D01*
X541457Y260984D02*
X546484D01*
X547138Y381862D02*
X556800Y372200D01*
X572626Y390150D02*
X584537D01*
X516362Y279638D02*
X521256Y274744D01*
X532517Y347917D02*
X532645D01*
X510500Y159000D02*
X513276Y156224D01*
Y137327D02*
Y156224D01*
X617523Y355118D02*
X620255Y352386D01*
X629114D01*
X631000Y350500D01*
X612018Y355118D02*
X617523D01*
X610900Y354000D02*
X612018Y355118D01*
X595037Y354000D02*
X610900D01*
X639183Y331008D02*
X641305Y333129D01*
X639183Y330533D02*
Y331008D01*
X633913Y325264D02*
X639183Y330533D01*
X631000Y325264D02*
X633913D01*
X641305Y333129D02*
X662345D01*
X638532Y355118D02*
X644100D01*
X633913Y350500D02*
X638532Y355118D01*
X631000Y350500D02*
X633913D01*
X646089Y353129D02*
X662345D01*
X644100Y355118D02*
X646089Y353129D01*
X552500Y111500D02*
X562500D01*
X690000Y199623D02*
Y279000D01*
X681493Y145629D02*
X690000Y154136D01*
X627500Y206382D02*
X643700D01*
X645448Y208129D01*
X661808D01*
X681493D02*
X690000Y199623D01*
Y154136D02*
Y199623D01*
X645382Y139882D02*
X651129Y145629D01*
X661808D01*
X630500Y139882D02*
X645382D01*
X690000Y279000D02*
Y341099D01*
Y277412D02*
Y279000D01*
X681493Y268905D02*
X690000Y277412D01*
X657595Y293118D02*
X661808Y288905D01*
X628000Y293118D02*
X657595D01*
X614918D02*
X628000D01*
X504500Y272260D02*
Y323492D01*
X442512Y323838D02*
X448059D01*
X441700Y324650D02*
X442512Y323838D01*
X436331Y324650D02*
X441700D01*
X539000Y321500D02*
Y345101D01*
X493441Y261201D02*
X504500Y272260D01*
X415000Y324857D02*
X427461D01*
X414500Y324357D02*
X415000Y324857D01*
X682030Y333129D02*
X690000Y341099D01*
X425263Y331219D02*
Y339182D01*
Y331219D02*
X426413Y330068D01*
Y325512D02*
Y330068D01*
X690000Y341099D02*
Y389435D01*
X628512Y268393D02*
X661297D01*
X361000Y253815D02*
Y277414D01*
Y253815D02*
X377315Y237500D01*
X393569Y176643D02*
Y177236D01*
X427461Y324857D02*
X427669Y324650D01*
X399283Y188205D02*
Y199000D01*
X427997Y341916D02*
X428171D01*
X425263Y339182D02*
X427997Y341916D01*
X426413Y325512D02*
X427276Y324650D01*
X530150Y346858D02*
Y371043D01*
X529693Y371500D02*
X530150Y371043D01*
X528705Y371500D02*
X529693D01*
X548071Y363471D02*
X556800Y372200D01*
X548071Y362880D02*
Y363471D01*
X539342Y354151D02*
X548071Y362880D01*
X538878Y354151D02*
X539342D01*
X532645Y347917D02*
X538878Y354151D01*
X375900Y439400D02*
X383907D01*
X377009Y434509D02*
X383791D01*
X364100Y421600D02*
X377009Y434509D01*
X364100Y361445D02*
Y421600D01*
X384300Y418733D02*
Y434000D01*
X383791Y434509D02*
X384300Y434000D01*
X364100Y361445D02*
X364126D01*
X393285Y222094D02*
Y225785D01*
X365086Y281500D02*
X373437D01*
X361000Y277414D02*
X365086Y281500D01*
X390430Y224948D02*
X393285Y222094D01*
X377500Y237315D02*
X389866Y224948D01*
X390430D01*
X377500Y237315D02*
Y237500D01*
X377315D02*
X377500D01*
X579000Y150257D02*
X580757Y148500D01*
X579000Y150257D02*
Y180743D01*
X580757Y148500D02*
X594768D01*
X597762Y189625D02*
X598637Y190500D01*
X597762Y186762D02*
Y189625D01*
X580757Y182500D02*
X593500D01*
X597762Y186762D01*
X498850Y329142D02*
X500402D01*
X499342D02*
X500402Y328083D01*
Y327591D02*
X504500Y323492D01*
X500402Y327591D02*
Y328083D01*
X498850Y346858D02*
X530150D01*
X556800Y372200D02*
X595974D01*
X537243Y346858D02*
X539000Y345101D01*
X384000Y167074D02*
X393569Y176643D01*
X384000Y159000D02*
Y167074D01*
X417500Y361445D02*
X419311D01*
X388900D02*
X392689D01*
X411500Y183387D02*
Y189500D01*
X418500Y166000D02*
Y177236D01*
X411413Y166000D02*
Y177236D01*
X418500D02*
Y182300D01*
X416421Y184379D02*
X418500Y182300D01*
X416421Y184379D02*
Y189500D01*
X411413Y183300D02*
X411500Y183387D01*
X417883Y165383D02*
X418500Y166000D01*
X411413Y177236D02*
Y183300D01*
X417883Y154883D02*
Y165383D01*
X417500Y154500D02*
X417883Y154883D01*
X401800Y166000D02*
X411413D01*
X393569Y177236D02*
Y188205D01*
Y199000D01*
X393285Y210383D02*
X393569Y210100D01*
Y199000D02*
Y210100D01*
Y174231D02*
X401800Y166000D01*
X399283Y177236D02*
Y188205D01*
X442227Y318123D02*
X448059D01*
X442000Y318350D02*
X442227Y318123D01*
X436331Y318350D02*
X442000D01*
X527322Y123480D02*
X533160Y117642D01*
X533276D02*
Y137327D01*
X529007Y150507D02*
X531493D01*
X533160Y117642D02*
X533276D01*
X524188Y145688D02*
X529007Y150507D01*
X524188Y133900D02*
Y145688D01*
X531493Y150507D02*
X545000Y137000D01*
Y115000D02*
Y137000D01*
X513276Y128988D02*
Y137327D01*
Y128988D02*
X515033Y127231D01*
X517518D01*
X524188Y133900D01*
X513276Y117642D02*
X514943Y115975D01*
X518525D01*
X383907Y439400D02*
X400933Y422374D01*
X380067Y414500D02*
X384300Y418733D01*
X405200Y410893D02*
Y424100D01*
X400933Y406626D02*
X405200Y410893D01*
X399077Y218400D02*
X416000D01*
X466200Y139500D02*
X472547D01*
X465700Y140000D02*
X466200Y139500D01*
X459405Y140000D02*
X465700D01*
X441790Y111751D02*
X447037D01*
X447894Y110894D01*
Y112608D01*
X450500Y115214D01*
Y116000D01*
X435145Y118396D02*
Y125257D01*
Y118396D02*
X441790Y111751D01*
X460500Y116681D02*
X467299Y123480D01*
X419500Y201700D02*
Y214900D01*
X416000Y218400D02*
X419500Y214900D01*
X428500Y131902D02*
Y138000D01*
Y131902D02*
X435145Y125257D01*
X500402Y329142D02*
X530150D01*
X355252Y361445D02*
X355300D01*
X380067Y398752D02*
X388900Y389919D01*
X410437Y361445D02*
Y389248D01*
X400933Y398752D02*
X410437Y389248D01*
X388900Y361445D02*
Y389919D01*
X486164Y105000D02*
X498805Y117642D01*
X453789Y105000D02*
X486164D01*
X447894Y110894D02*
X453789Y105000D01*
X467299Y123480D02*
X527322D01*
X538000Y108000D02*
X545000Y115000D01*
X498805Y117642D02*
X513276D01*
X518525Y115975D02*
X526500Y108000D01*
X538000D01*
X417500Y361445D02*
Y407100D01*
X586822Y271000D02*
X601000D01*
X682030Y397405D02*
X690000Y389435D01*
X594500Y227358D02*
X598760Y231618D01*
X627500D01*
X660543Y228129D02*
X661808D01*
X657054Y231618D02*
X660543Y228129D01*
X627500Y231618D02*
X657054D01*
X661297Y268393D02*
X661808Y268905D01*
X628000Y267882D02*
X628512Y268393D01*
X595974Y372200D02*
X597299Y373525D01*
Y376625D01*
X598174Y377500D01*
X603500Y139768D02*
Y141518D01*
X602250Y142768D02*
X603500Y141518D01*
X600500Y142768D02*
X602250D01*
X594768Y148500D02*
X600500Y142768D01*
X579000Y180743D02*
X580757Y182500D01*
X602250Y265400D02*
X603500Y264150D01*
X602250Y265400D02*
Y269750D01*
X601000Y271000D02*
X602250Y269750D01*
X578000Y279822D02*
X586822Y271000D01*
X578000Y279822D02*
Y292500D01*
Y302500D01*
X584515Y309015D01*
X592247D01*
X599637Y316406D01*
Y317000D01*
X646123Y397405D02*
X662345D01*
X643100Y394382D02*
X646123Y397405D01*
X627037Y394382D02*
X643100D01*
X599637Y317000D02*
Y320600D01*
X604037Y324999D01*
Y328650D01*
X603500Y260463D02*
Y264150D01*
X599637Y256600D02*
X603500Y260463D01*
X599637Y253000D02*
Y256600D01*
Y249137D02*
Y253000D01*
X595200Y244700D02*
X599637Y249137D01*
X585600Y244700D02*
X595200D01*
X581300Y240400D02*
X585600Y244700D01*
X581300Y212800D02*
Y240400D01*
Y212800D02*
X583000Y211100D01*
X601600D01*
X603500Y209200D01*
Y202008D02*
Y209200D01*
X598174Y377500D02*
Y381600D01*
X602537Y385963D01*
Y390150D01*
X603500Y198663D02*
Y202008D01*
X598637Y193800D02*
X603500Y198663D01*
X598637Y190500D02*
Y193800D01*
X603500Y135563D02*
Y139768D01*
X599137Y131200D02*
X603500Y135563D01*
X599137Y127000D02*
Y131200D01*
X594500Y165118D02*
X630500D01*
X645800D01*
X646311Y165629D01*
X661808D01*
X594500Y289500D02*
X611300D01*
X614918Y293118D01*
X593537Y415500D02*
X608200D01*
X612318Y419618D01*
X627037D01*
X643500D01*
X645713Y417405D01*
X662345D01*
X574126Y139000D02*
X579400D01*
X580168Y139768D01*
X585500D01*
Y136063D02*
Y139768D01*
Y136063D02*
X590863Y130700D01*
Y127000D02*
Y130700D01*
X585500Y198663D02*
Y202008D01*
Y198663D02*
X590363Y193800D01*
Y190500D02*
Y193800D01*
X572626Y264000D02*
X578900D01*
X579050Y264150D01*
X585500D01*
Y261463D02*
Y264150D01*
Y261463D02*
X591363Y255600D01*
Y253000D02*
Y255600D01*
X572626Y328650D02*
X586037D01*
Y325426D02*
Y328650D01*
Y325426D02*
X591363Y320100D01*
Y317000D02*
Y320100D01*
X584537Y386463D02*
Y390150D01*
Y386463D02*
X589899Y381100D01*
Y377500D02*
Y381100D01*
D70*
X681493Y208129D02*
D03*
X661808D02*
D03*
Y268905D02*
D03*
X681493D02*
D03*
X682030Y333129D02*
D03*
X662345D02*
D03*
X682030Y397405D02*
D03*
X662345D02*
D03*
X681493Y145629D02*
D03*
X661808D02*
D03*
D71*
X681493Y228129D02*
D03*
X661808D02*
D03*
Y288905D02*
D03*
X681493D02*
D03*
X682030Y353129D02*
D03*
X662345D02*
D03*
X682030Y417405D02*
D03*
X662345D02*
D03*
X533276Y117642D02*
D03*
Y137327D02*
D03*
X681493Y165629D02*
D03*
X661808D02*
D03*
D72*
X468000Y417000D02*
D03*
D73*
X443000D02*
D03*
D74*
X354500Y112500D02*
D03*
X689000Y110500D02*
D03*
X690000Y440000D02*
D03*
X355000Y438500D02*
D03*
D75*
X400933Y398752D02*
D03*
Y406626D02*
D03*
Y414500D02*
D03*
Y422374D02*
D03*
Y430248D02*
D03*
X380067Y398752D02*
D03*
Y406626D02*
D03*
Y414500D02*
D03*
Y422374D02*
D03*
D76*
Y430248D02*
D03*
D77*
X513276Y117642D02*
D03*
Y137327D02*
D03*
D78*
X450500Y116681D02*
D03*
X460500D02*
D03*
X470500D02*
D03*
D79*
X480500D02*
D03*
D80*
X485000Y386000D02*
D03*
X493541Y380500D02*
D03*
X485000Y438500D02*
D03*
X500000Y243500D02*
D03*
X519874D02*
D03*
X455500Y444000D02*
D03*
X458500Y427000D02*
D03*
X438275Y331225D02*
D03*
X468000Y398500D02*
D03*
X456000Y410000D02*
D03*
X557000Y397500D02*
D03*
X541000Y441500D02*
D03*
X461000Y387000D02*
D03*
X477500Y231000D02*
D03*
X554500Y235500D02*
D03*
X504500Y209000D02*
D03*
X504000Y190500D02*
D03*
X524500Y182000D02*
D03*
X356000Y262500D02*
D03*
X433500Y423500D02*
D03*
X424000Y312500D02*
D03*
X415375Y274925D02*
D03*
X380000Y295000D02*
D03*
X400000Y306000D02*
D03*
X552500Y111500D02*
D03*
X426500Y255500D02*
D03*
X357000Y246500D02*
D03*
X421000Y320357D02*
D03*
X431525Y244525D02*
D03*
X437500Y252500D02*
D03*
X439900Y286181D02*
D03*
X440200Y279000D02*
D03*
X464500Y281500D02*
D03*
Y289000D02*
D03*
X454500Y283000D02*
D03*
X465500Y301000D02*
D03*
X458000Y294050D02*
D03*
X450500Y302758D02*
D03*
X484500Y378500D02*
D03*
X501000Y370500D02*
D03*
X497000Y393000D02*
D03*
X508500D02*
D03*
X518000Y394000D02*
D03*
X526500Y398500D02*
D03*
X502500Y402000D02*
D03*
X518000Y406500D02*
D03*
X436301Y273714D02*
D03*
X439900Y269555D02*
D03*
X453658Y248642D02*
D03*
X450364Y236564D02*
D03*
X465700Y270400D02*
D03*
X466900Y255300D02*
D03*
X455900Y269900D02*
D03*
X489500Y296500D02*
D03*
X473500Y179000D02*
D03*
X463500Y378500D02*
D03*
X373437Y281500D02*
D03*
X441500Y210000D02*
D03*
X377500Y237500D02*
D03*
X452004Y296486D02*
D03*
X441000Y181000D02*
D03*
X441500Y174000D02*
D03*
X453500Y176000D02*
D03*
X417500Y407100D02*
D03*
X555382Y421100D02*
D03*
X546524Y311800D02*
D03*
X512200Y444700D02*
D03*
X520300Y203878D02*
D03*
X516800Y220600D02*
D03*
X550900Y206100D02*
D03*
X522200Y227500D02*
D03*
X462000Y261000D02*
D03*
X394435Y265032D02*
D03*
X403100Y260600D02*
D03*
X434300Y286400D02*
D03*
X428500Y138000D02*
D03*
X370000Y274500D02*
D03*
X384000Y159000D02*
D03*
X467500Y176000D02*
D03*
X417500Y154500D02*
D03*
X432400Y304400D02*
D03*
X466225Y168725D02*
D03*
X555582Y261718D02*
D03*
X559400Y211200D02*
D03*
X561100Y430200D02*
D03*
M02*
