<?xml version="1.0" encoding="utf-8"?>
<!-- Generator: Adobe Illustrator 16.0.3, SVG Export Plug-In . SVG Version: 6.00 Build 0)  -->
<!DOCTYPE svg PUBLIC "-//W3C//DTD SVG 1.1//EN" "http://www.w3.org/Graphics/SVG/1.1/DTD/svg11.dtd">
<svg version="1.1" id="Layer_3" xmlns="http://www.w3.org/2000/svg" xmlns:xlink="http://www.w3.org/1999/xlink" x="0px" y="0px"
	 width="570px" height="590px" viewBox="0 0 570 590" enable-background="new 0 0 570 590" xml:space="preserve">
<rect fill="#FFFFFF" width="570" height="590"/>
<path fill="#B6D3F1" stroke="#003B71" stroke-width="1.95" d="M420.349,282.797c0,77.313-62.667,140.005-139.987,140.005
	c-77.322,0-140.006-62.688-140.006-140.005c0-77.32,62.684-140.011,140.006-140.011C357.682,142.786,420.349,205.47,420.349,282.797
	z"/>
<path fill="#B6D3F1" stroke="#003B71" stroke-width="1.95" stroke-linejoin="round" d="M509.827,437.58
	c-22.773,33.825-53.416,63.118-91.106,84.889c-96.52,55.724-212.637,46.695-298.086-13.593l-0.001,0.008l-6.866,9.612
	c-19.289-31.977-29.511-81.483-29.9-103.166c34.582,16.377,71.685,20.79,89.686,18.625l-7.021,9.938l-0.001,0.003
	c60.893,42.963,143.641,49.392,212.415,9.682c26.858-15.509,48.691-36.384,64.931-60.487L509.827,437.58z"/>
<path fill="none" stroke="#666666" stroke-width="45" d="M125.403,392.599"/>
<g>
	<path fill="#B6D3F1" stroke="#003B71" stroke-width="1.95" stroke-linejoin="round" d="M31.57,404.136
		c-17.905-36.64-27.954-77.818-27.954-121.354c0-111.446,65.876-207.505,160.813-251.363l-0.001-0.002l-4.897-10.755
		c37.336-0.712,85.322,15.19,104.293,25.693c-31.475,21.76-53.848,51.686-60.973,68.355l-5.098-11.052l-0.001-0.001
		C130.099,134.91,83.153,203.364,83.153,282.782c0,31.026,7.162,60.372,19.92,86.48L31.57,404.136z"/>
	<path fill="#B6D3F1" stroke="#003B71" stroke-width="1.95" stroke-linejoin="round" d="M299.659,6.66
		c40.688,2.814,81.37,14.701,119.063,36.465c96.518,55.727,146.77,160.808,137.279,264.959h0.002l11.764,1.145
		c-18.051,32.688-55.813,66.296-74.396,77.474c-3.107-38.138-17.842-72.478-28.718-86.981l12.118,1.109h0.003
		c6.766-74.225-29.052-149.104-97.824-188.813c-26.86-15.514-55.854-23.979-84.853-25.983L299.659,6.66z"/>
</g>
<polygon fill="#003B71" stroke="#4E4084" stroke-width="0.1183" points="280.356,229.2 274.356,233.867 276.755,233.867 
	276.755,238.534 274.356,238.534 280.356,243.2 286.354,238.534 283.956,238.534 283.956,233.867 286.354,233.867 "/>
<polygon fill="#003B71" stroke="#4E4084" stroke-width="0.1183" points="326.816,309.479 325.759,301.952 324.563,304.034 
	320.516,301.71 321.711,299.629 314.677,302.508 315.734,310.035 316.932,307.954 320.979,310.277 319.782,312.358 "/>
<polygon fill="#003B71" stroke="#003B71" stroke-width="0.1183" points="234.019,309.71 241.068,312.554 239.863,310.479 
	243.898,308.135 245.104,310.21 246.125,302.678 239.077,299.833 240.283,301.909 236.247,304.253 235.04,302.178 "/>
<polygon fill="#003B71" stroke="#4E4084" stroke-width="0.3367" points="280.356,431.774 262.723,444.635 269.776,444.635 
	269.776,457.492 262.723,457.492 280.356,470.351 297.98,457.492 290.927,457.492 290.927,444.635 297.98,444.635 "/>
<polygon fill="#003B71" stroke="#4E4084" stroke-width="0.3367" points="151.335,208.296 149.017,186.597 145.49,192.705 
	134.353,186.275 137.88,180.167 117.927,189.008 120.247,210.708 123.775,204.599 134.912,211.028 131.384,217.138 "/>
<polygon fill="#003B71" stroke="#4E4084" stroke-width="0.3367" points="409.369,208.296 429.321,217.137 425.795,211.029 
	436.931,204.6 440.457,210.708 442.776,189.008 422.824,180.167 426.352,186.276 415.216,192.706 411.688,186.597 "/>
<path fill="#FDDDA1" stroke="#003B71" stroke-width="1.95" stroke-linejoin="round" d="M45.221,467.82
	c-0.159-51.482,28.208-97.329,71.078-121.221l-0.003-0.002l-2.847-5.184c18.587-1.765,43.112,4.354,52.968,8.866
	c-14.869,12.041-24.893,27.813-27.816,36.387l-2.958-5.313l-0.001-0.003c-30.613,17.063-50.85,49.835-50.648,86.618L45.221,467.82z"
	/>
<g>
	<path fill="#003B71" d="M70.83,445.23l-0.343,1.783l-6.928-1.33l-0.438,2.284l-1.485-0.284l1.221-6.354l1.484,0.285l-0.439,2.284
		L70.83,445.23z"/>
	<path fill="#003B71" d="M72.98,436.222l-0.447,1.729l-3.705-0.953c-0.915-0.229-1.461-0.014-1.637,0.667
		c-0.124,0.484-0.049,0.878,0.225,1.184c0.274,0.302,0.778,0.546,1.517,0.729l2.985,0.771l-0.447,1.729l-8.828-2.271l0.445-1.729
		l1.799,0.463c0.141,0.036,0.466,0.142,0.978,0.299l0.5,0.173l0.023-0.097c-0.521-0.545-0.673-1.231-0.457-2.071
		c0.191-0.745,0.538-1.267,1.038-1.542c0.5-0.282,1.126-0.327,1.875-0.141L72.98,436.222z"/>
	<path fill="#003B71" d="M74.464,431.932c-0.328,1.003-0.86,1.696-1.597,2.081c-0.737,0.385-1.613,0.41-2.628,0.08
		c-1.043-0.342-1.766-0.864-2.165-1.571c-0.399-0.707-0.45-1.521-0.149-2.443c0.287-0.881,0.762-1.479,1.422-1.812
		c0.662-0.325,1.434-0.346,2.318-0.057l0.824,0.268l-1.31,4.018c0.489,0.146,0.912,0.119,1.271-0.061
		c0.358-0.18,0.617-0.511,0.773-0.991c0.123-0.375,0.199-0.743,0.23-1.104c0.03-0.358,0.021-0.748-0.032-1.168l1.314,0.428
		c0.052,0.347,0.06,0.699,0.021,1.062C74.72,431.021,74.622,431.444,74.464,431.932z M69.138,430.467
		c-0.117,0.354-0.096,0.682,0.066,0.959c0.162,0.272,0.447,0.501,0.857,0.668l0.777-2.392c-0.422-0.129-0.781-0.125-1.079,0.019
		C69.462,429.852,69.255,430.101,69.138,430.467z"/>
	<path fill="#003B71" d="M76.661,420.435c0.62,0.26,1.003,0.673,1.146,1.231c0.143,0.566,0.036,1.278-0.322,2.144
		c-0.184,0.438-0.37,0.802-0.56,1.087c-0.19,0.284-0.396,0.538-0.626,0.76l-1.362-0.563c0.272-0.245,0.537-0.54,0.795-0.891
		c0.259-0.342,0.448-0.652,0.57-0.944c0.25-0.604,0.202-0.978-0.143-1.115c-0.131-0.062-0.252-0.063-0.366-0.021
		c-0.114,0.053-0.264,0.146-0.448,0.303c-0.184,0.146-0.412,0.354-0.686,0.628c-0.389,0.385-0.711,0.646-0.969,0.799
		c-0.257,0.146-0.514,0.229-0.77,0.234c-0.256,0.012-0.54-0.056-0.854-0.188c-0.537-0.225-0.865-0.604-0.984-1.146
		c-0.12-0.538-0.02-1.189,0.299-1.962c0.306-0.727,0.76-1.362,1.365-1.925l0.98,0.995c-0.256,0.248-0.48,0.485-0.673,0.715
		c-0.193,0.229-0.347,0.479-0.462,0.754c-0.203,0.486-0.174,0.785,0.09,0.896c0.147,0.063,0.309,0.037,0.481-0.073
		c0.175-0.104,0.478-0.389,0.912-0.828c0.39-0.394,0.712-0.664,0.97-0.813c0.258-0.149,0.517-0.231,0.775-0.246
		C76.081,420.254,76.362,420.31,76.661,420.435z"/>
	<path fill="#003B71" d="M78.966,417.044c0.135-0.275,0.233-0.646,0.297-1.104l1.201,0.57c-0.01,0.48-0.154,1.021-0.433,1.604
		c-0.307,0.646-0.692,1.039-1.159,1.179c-0.467,0.146-1.025,0.063-1.679-0.255l-2.853-1.354l-0.367,0.771l-0.684-0.316l-0.117-1.146
		l-1.027-1.06l0.488-1.032l1.26,0.6l0.787-1.651l1.213,0.568l-0.787,1.657l2.854,1.354c0.229,0.104,0.429,0.125,0.6,0.049
		C78.73,417.4,78.867,417.257,78.966,417.044z"/>
	<path fill="#003B71" d="M83.091,411.944l-0.947-0.119l-0.022,0.041c0.19,0.444,0.274,0.842,0.252,1.19
		c-0.022,0.35-0.155,0.75-0.399,1.193c-0.299,0.561-0.691,0.903-1.18,1.058c-0.487,0.146-1.024,0.063-1.608-0.253
		c-0.612-0.33-0.946-0.788-1.007-1.373c-0.059-0.584,0.129-1.315,0.564-2.194l0.51-1.019L79,410.328
		c-0.584-0.313-1.037-0.174-1.36,0.424c-0.249,0.464-0.402,1.078-0.46,1.854l-1.342-0.055c0.01-0.854,0.234-1.686,0.67-2.486
		c0.418-0.773,0.906-1.275,1.467-1.507c0.559-0.229,1.184-0.159,1.869,0.213l3.841,2.074L83.091,411.944z M80.17,410.966
		l-0.308,0.619c-0.233,0.465-0.336,0.854-0.305,1.154c0.031,0.304,0.201,0.541,0.51,0.709c0.443,0.239,0.803,0.104,1.077-0.404
		c0.197-0.355,0.25-0.712,0.158-1.043c-0.093-0.332-0.312-0.592-0.659-0.772L80.17,410.966z"/>
	<path fill="#003B71" d="M80.716,402.87c0.125-0.206,0.246-0.369,0.359-0.486l1.359,0.988c-0.108,0.104-0.217,0.243-0.324,0.419
		c-0.298,0.487-0.404,0.942-0.32,1.367c0.084,0.424,0.351,0.773,0.801,1.05l2.845,1.738l-0.932,1.524l-5.59-3.416l0.706-1.155
		l1.076,0.35l0.047-0.075c-0.207-0.356-0.316-0.753-0.328-1.165C80.403,403.597,80.503,403.218,80.716,402.87z"/>
	<path fill="#003B71" d="M87.754,401.966c0.175-0.26,0.327-0.604,0.46-1.047l1.102,0.744c-0.084,0.479-0.307,0.988-0.67,1.527
		c-0.399,0.592-0.841,0.922-1.322,0.989c-0.482,0.063-1.023-0.104-1.621-0.511l-2.619-1.766l-0.479,0.709l-0.626-0.423l0.055-1.149
		l-0.858-1.194l0.64-0.946l1.156,0.778l1.026-1.521l1.111,0.751l-1.025,1.521l2.618,1.768c0.21,0.142,0.405,0.188,0.585,0.137
		C87.467,402.282,87.623,402.16,87.754,401.966z"/>
	<path fill="#003B71" d="M83.45,396.028c-0.47-0.344-0.515-0.776-0.132-1.3c0.383-0.524,0.81-0.614,1.279-0.271
		c0.225,0.163,0.35,0.355,0.379,0.578c0.029,0.222-0.052,0.463-0.242,0.729C84.351,396.284,83.923,396.374,83.45,396.028z
		 M91.206,399.386l-1.055,1.438l-5.289-3.863l1.054-1.438L91.206,399.386z"/>
	<path fill="#003B71" d="M95.984,393.325l-1.123,1.39l-2.977-2.396c-0.367-0.299-0.697-0.454-0.985-0.479
		c-0.29-0.018-0.55,0.115-0.78,0.401c-0.314,0.39-0.412,0.773-0.291,1.159c0.119,0.382,0.48,0.813,1.082,1.303l2.397,1.938
		l-1.122,1.392l-5.097-4.115l0.857-1.063l0.803,0.34l0.063-0.078c-0.12-0.354-0.135-0.717-0.041-1.092
		c0.094-0.373,0.28-0.732,0.561-1.08c0.478-0.593,1.002-0.912,1.571-0.961c0.568-0.049,1.154,0.173,1.758,0.661L95.984,393.325z"/>
	<path fill="#003B71" d="M96.037,383.52l0.67,0.606l-0.498,0.938c0.344,0.059,0.648,0.212,0.916,0.456
		c0.519,0.476,0.758,1.021,0.717,1.648c-0.042,0.629-0.357,1.266-0.944,1.9l-0.231,0.229l-0.199,0.178
		c-0.021,0.229,0.033,0.396,0.16,0.521c0.189,0.175,0.506,0.021,0.949-0.466l0.752-0.821c0.485-0.522,0.969-0.829,1.451-0.896
		c0.482-0.067,0.943,0.1,1.384,0.503c0.565,0.517,0.787,1.152,0.667,1.909c-0.119,0.757-0.584,1.572-1.391,2.455
		c-0.617,0.675-1.206,1.082-1.766,1.224c-0.561,0.143-1.053,0.018-1.477-0.37c-0.291-0.267-0.451-0.579-0.481-0.938
		c-0.029-0.36,0.074-0.763,0.313-1.188c-0.183,0.083-0.385,0.114-0.608,0.096c-0.223-0.019-0.409-0.096-0.556-0.229
		c-0.184-0.168-0.289-0.363-0.313-0.582c-0.024-0.22-0.004-0.482,0.062-0.793c-0.341,0.153-0.701,0.19-1.078,0.12
		c-0.378-0.071-0.73-0.262-1.061-0.563c-0.526-0.479-0.777-1.021-0.752-1.635c0.026-0.604,0.33-1.229,0.913-1.865
		c0.124-0.135,0.284-0.277,0.478-0.44c0.195-0.164,0.322-0.271,0.381-0.313L96.037,383.52z M94.643,388.218
		c0.263,0.24,0.524,0.37,0.787,0.396c0.263,0.021,0.505-0.093,0.729-0.338c0.227-0.247,0.316-0.499,0.27-0.755
		c-0.048-0.254-0.202-0.502-0.465-0.741c-0.582-0.533-1.092-0.563-1.529-0.082C93.992,387.177,94.061,387.685,94.643,388.218z
		 M98.138,392.298c0.181,0.166,0.403,0.209,0.667,0.137c0.263-0.078,0.538-0.275,0.825-0.597c0.434-0.473,0.707-0.896,0.822-1.288
		c0.116-0.388,0.061-0.684-0.163-0.89c-0.182-0.165-0.38-0.202-0.594-0.104c-0.214,0.097-0.474,0.31-0.776,0.642l-0.625,0.682
		c-0.222,0.242-0.35,0.497-0.385,0.771C97.874,391.907,97.951,392.126,98.138,392.298z"/>
	<path fill="#003B71" d="M106.3,382.915c-0.566,0.521-1.201,0.729-1.9,0.607l-0.068,0.063c0.416,0.36,0.652,0.573,0.71,0.644
		l1.795,1.956l-1.317,1.204l-6.377-6.947l1.07-0.981l0.76,0.456l0.061-0.057c-0.131-0.768,0.106-1.417,0.711-1.979
		c0.57-0.521,1.218-0.711,1.944-0.563c0.726,0.145,1.448,0.604,2.167,1.391c0.473,0.521,0.809,1.031,1.006,1.551
		c0.197,0.521,0.248,1.014,0.15,1.46C106.914,382.17,106.677,382.569,106.3,382.915z M102.288,379.321
		c-0.325,0.299-0.472,0.617-0.438,0.955c0.035,0.337,0.26,0.737,0.677,1.205l0.131,0.143c0.476,0.521,0.894,0.818,1.253,0.9
		c0.36,0.084,0.707-0.027,1.041-0.334c0.59-0.541,0.438-1.3-0.454-2.271c-0.437-0.475-0.835-0.765-1.198-0.868
		C102.935,378.946,102.598,379.036,102.288,379.321z"/>
	<path fill="#003B71" d="M111.574,374.054c0.668,0.824,0.973,1.649,0.912,2.479c-0.059,0.819-0.48,1.547-1.262,2.176
		c-0.489,0.396-1.008,0.644-1.555,0.729c-0.547,0.086-1.082,0.012-1.606-0.229c-0.524-0.238-1.003-0.626-1.435-1.162
		c-0.672-0.833-0.977-1.647-0.914-2.469c0.063-0.813,0.486-1.537,1.274-2.173c0.489-0.396,1.007-0.636,1.553-0.729
		c0.546-0.089,1.079-0.016,1.602,0.229C110.664,373.134,111.142,373.519,111.574,374.054z M108.047,376.897
		c0.407,0.504,0.798,0.813,1.172,0.938c0.374,0.125,0.748,0.036,1.122-0.265c0.371-0.3,0.534-0.645,0.49-1.031
		c-0.045-0.389-0.271-0.836-0.682-1.344c-0.406-0.505-0.794-0.817-1.162-0.938c-0.367-0.118-0.738-0.025-1.113,0.271
		c-0.371,0.3-0.537,0.641-0.498,1.021C107.414,375.944,107.638,376.39,108.047,376.897z"/>
	<path fill="#003B71" d="M109.764,369.26c-0.344-0.477-0.253-0.896,0.271-1.277c0.524-0.383,0.955-0.34,1.299,0.131
		c0.164,0.224,0.227,0.445,0.188,0.666c-0.04,0.221-0.191,0.426-0.453,0.617C110.544,369.778,110.11,369.733,109.764,369.26z
		 M116.134,374.815l-1.442,1.055l-3.867-5.287l1.442-1.056L116.134,374.815z"/>
	<path fill="#003B71" d="M122.529,370.495l-1.492,0.981l-2.104-3.195c-0.26-0.395-0.525-0.646-0.796-0.749
		c-0.271-0.105-0.559-0.058-0.865,0.146c-0.417,0.271-0.627,0.605-0.63,1.016c-0.002,0.396,0.209,0.925,0.635,1.569l1.693,2.567
		l-1.492,0.981l-3.602-5.474l1.141-0.75l0.661,0.563l0.083-0.056c-0.008-0.374,0.09-0.729,0.293-1.056
		c0.203-0.325,0.491-0.61,0.863-0.855c0.636-0.419,1.232-0.563,1.787-0.438c0.557,0.129,1.049,0.521,1.477,1.164L122.529,370.495z"
		/>
	<path fill="#003B71" d="M125.626,367.176c0.27-0.149,0.561-0.397,0.869-0.735l0.668,1.146c-0.285,0.396-0.707,0.758-1.268,1.082
		c-0.617,0.36-1.158,0.465-1.622,0.317c-0.464-0.148-0.877-0.535-1.241-1.159l-1.587-2.729l-0.739,0.437l-0.38-0.653l0.55-1.012
		l-0.248-1.454l0.987-0.574l0.7,1.205l1.586-0.922l0.675,1.16l-1.585,0.922l1.587,2.729c0.128,0.225,0.283,0.352,0.468,0.382
		C125.23,367.337,125.423,367.294,125.626,367.176z"/>
</g>
<g>
	<g>
		<path fill="#003B71" d="M256.459,127.445c-0.395-1.709-0.877-3.773-1.188-5.58l-0.059,0.011c-0.138,1.705-0.362,3.61-0.647,5.404
			l-0.88,6.145l-1.884,0.345l-2.831-5.381c-0.829-1.61-1.638-3.347-2.301-4.945l-0.04,0.007c0.261,1.755,0.57,3.891,0.805,5.732
			l0.689,5.426l-2.279,0.418l-1.559-13.523l3.211-0.589l2.729,5.051c0.763,1.479,1.47,2.988,2.08,4.412l0.06-0.01
			c0.091-1.512,0.245-3.242,0.474-4.902l0.861-5.689l3.172-0.582l3.224,13.217l-2.378,0.437L256.459,127.445z"/>
		<path fill="#003B71" d="M268.111,131.722l-0.26-1.069l-0.06,0.005c-0.532,0.818-1.506,1.455-2.771,1.57
			c-1.968,0.18-3.202-1.143-3.339-2.629c-0.226-2.469,1.847-3.915,5.463-4.226l-0.015-0.161c-0.06-0.642-0.417-1.682-2.144-1.524
			c-0.964,0.088-1.939,0.482-2.563,0.965l-0.629-1.562c0.682-0.508,1.908-1.046,3.453-1.188c3.132-0.287,4.218,1.617,4.414,3.745
			l0.324,3.533c0.081,0.883,0.2,1.742,0.356,2.335L268.111,131.722z M267.351,126.973c-1.75,0.121-3.381,0.655-3.245,2.141
			c0.088,0.963,0.751,1.347,1.535,1.276c0.983-0.09,1.647-0.799,1.803-1.522c0.044-0.186,0.044-0.389,0.029-0.549L267.351,126.973z"
			/>
		<path fill="#003B71" d="M272.679,124.468c-0.021-1.129-0.062-2.076-0.138-2.921l2.176-0.043l0.15,1.469l0.061-0.001
			c0.408-0.774,1.458-1.723,3.09-1.755c1.713-0.034,3.509,1.039,3.57,4.143l0.115,5.825l-2.479,0.049l-0.11-5.542
			c-0.028-1.411-0.572-2.468-1.922-2.442c-0.988,0.02-1.66,0.739-1.906,1.49c-0.077,0.223-0.09,0.525-0.085,0.808l0.114,5.764
			l-2.5,0.049L272.679,124.468z"/>
		<path fill="#003B71" d="M289.835,131.543l-0.104-1.096l-0.061-0.003c-0.645,0.733-1.699,1.223-2.967,1.157
			c-1.973-0.103-3.006-1.591-2.927-3.08c0.129-2.477,2.39-3.61,6.011-3.4l0.01-0.161c0.033-0.645-0.172-1.726-1.904-1.816
			c-0.967-0.05-1.988,0.199-2.674,0.587l-0.4-1.636c0.748-0.405,2.039-0.761,3.589-0.68c3.141,0.164,3.941,2.205,3.83,4.339
			l-0.186,3.543c-0.047,0.886-0.052,1.754,0.018,2.363L289.835,131.543z M289.764,126.735c-1.75-0.132-3.438,0.163-3.519,1.652
			c-0.052,0.966,0.551,1.442,1.335,1.483c0.986,0.052,1.745-0.555,2.004-1.247c0.07-0.178,0.102-0.378,0.109-0.54L289.764,126.735z"
			/>
		<path fill="#003B71" d="M304.68,123.247c-0.123,0.655-0.265,1.449-0.433,2.789l-0.692,5.519c-0.258,2.039-0.859,3.446-1.994,4.238
			c-1.133,0.771-2.567,0.875-3.908,0.708c-1.237-0.156-2.526-0.582-3.301-1.207l0.773-1.792c0.574,0.438,1.566,0.948,2.746,1.096
			c1.6,0.201,2.904-0.488,3.168-2.587l0.105-0.84l-0.039-0.005c-0.668,0.789-1.74,1.244-3.021,1.083
			c-2.419-0.304-3.889-2.52-3.541-5.278c0.4-3.2,2.725-4.877,5.064-4.584c1.479,0.186,2.268,1.016,2.627,1.874l0.041,0.005
			l0.263-1.288L304.68,123.247z M301.65,126.827c0.025-0.22,0.037-0.462,0.002-0.67c-0.146-0.933-0.76-1.7-1.801-1.831
			c-1.381-0.173-2.552,0.898-2.8,2.877c-0.208,1.66,0.464,3.104,2.005,3.298c0.92,0.116,1.793-0.384,2.185-1.228
			c0.093-0.253,0.176-0.588,0.211-0.868L301.65,126.827z"/>
		<path fill="#003B71" d="M308.559,129.641c-0.291,1.751,0.922,2.775,2.463,3.084c1.127,0.226,1.97,0.23,2.756,0.1l0.02,1.751
			c-0.896,0.169-2.095,0.196-3.479-0.081c-3.123-0.626-4.575-2.911-3.984-5.855c0.534-2.668,2.658-4.853,5.74-4.234
			c3.123,0.626,3.636,3.401,3.211,5.516c-0.092,0.454-0.202,0.802-0.284,1.012L308.559,129.641z M313.127,128.789
			c0.199-0.885,0.096-2.427-1.523-2.751c-1.502-0.302-2.408,0.935-2.705,1.903L313.127,128.789z"/>
	</g>
	<g>
		<path fill="#003B71" d="M11.733,161.675l-2.049,4.691l3.658,1.597l2.289-5.247l1.866,0.815l-3.282,7.519l-12.45-5.436l3.161-7.241
			l1.866,0.814l-2.17,4.968l3.215,1.404l2.048-4.692L11.733,161.675z"/>
		<path fill="#003B71" d="M10.254,155.895l2.177-0.251c0.612-0.064,1.171-0.11,1.746-0.147l0.026-0.054
			c-0.368-0.491-0.7-0.963-1.033-1.435l-1.164-1.765l1.168-2.434l2.83,5l6.043-0.811l-1.211,2.526l-2.285,0.244
			c-0.611,0.064-1.206,0.092-1.819,0.111l-0.017,0.037c0.386,0.498,0.701,0.962,1.052,1.487l1.273,1.863l-1.185,2.47l-3.032-5.231
			l-5.763,0.879L10.254,155.895z"/>
		<path fill="#003B71" d="M16.917,149.633c-1.142-0.601-2.088-1.055-2.927-1.451l1.015-1.926l1.395,0.598l0.018-0.035
			c-0.642-1.159-0.659-2.467,0.036-3.786c1.052-1.998,3.638-2.754,6.349-1.326c3.139,1.653,3.612,4.432,2.569,6.411
			c-0.573,1.087-1.516,1.754-2.447,1.833l-0.019,0.036l4.495,2.367l-1.156,2.195L16.917,149.633z M20.23,148.576
			c0.214,0.114,0.42,0.198,0.645,0.249c1.004,0.256,2.06-0.191,2.548-1.118c0.732-1.392,0.006-2.822-1.706-3.724
			c-1.534-0.808-3.177-0.716-3.919,0.692c-0.479,0.91-0.262,2.095,0.59,2.816c0.149,0.148,0.327,0.287,0.505,0.38L20.23,148.576z"/>
		<path fill="#003B71" d="M15.83,135.252l1.229-2.176l12.461,7.032l-1.229,2.177L15.83,135.252z"/>
		<path fill="#003B71" d="M31.369,127.22c3.088,1.865,3.155,4.873,1.863,7.011c-1.438,2.38-4.181,3.219-6.872,1.594
			c-2.76-1.667-3.356-4.499-1.825-7.034C26.045,126.289,28.815,125.679,31.369,127.22z M27.632,133.603
			c1.621,0.979,3.326,0.926,4.106-0.369c0.729-1.208,0.05-2.771-1.641-3.792c-1.312-0.792-3.166-1.113-4.042,0.337
			C25.15,131.281,26.234,132.76,27.632,133.603z"/>
		<path fill="#003B71" d="M31.191,124.467c-1.116-0.724-1.922-1.222-2.698-1.654l1.173-1.809l1.616,0.952l0.044-0.068
			c-0.903-1.163-0.87-2.51-0.3-3.389c0.131-0.203,0.225-0.31,0.368-0.458l1.962,1.272c-0.144,0.147-0.299,0.311-0.463,0.565
			c-0.647,0.997-0.442,2.09,0.366,2.879c0.164,0.155,0.362,0.331,0.6,0.485l4.26,2.761l-1.348,2.081L31.191,124.467z"/>
		<path fill="#003B71" d="M38.119,118.38c1.493,0.958,2.914,0.251,3.808-1.042c0.653-0.946,0.991-1.716,1.183-2.49l1.615,0.676
			c-0.199,0.891-0.648,2.001-1.451,3.162c-1.811,2.619-4.484,3.05-6.954,1.342c-2.237-1.547-3.403-4.362-1.616-6.948
			c1.811-2.62,4.563-1.993,6.336-0.765c0.381,0.263,0.656,0.502,0.815,0.662L38.119,118.38z M39.146,113.847
			c-0.734-0.532-2.189-1.049-3.13,0.311c-0.87,1.26-0.094,2.581,0.678,3.236L39.146,113.847z"/>
	</g>
	<g>
		<path fill="#003B71" d="M519.491,121.943c-0.582-0.307-1.567-1.192-2.5-2.531c-2.464-3.537-1.746-7.229,1.643-9.589
			c3.67-2.556,7.658-1.554,10.029,1.851c0.934,1.339,1.32,2.494,1.393,3.057l-1.931,0.682c-0.136-0.69-0.444-1.556-1.09-2.481
			c-1.577-2.265-4.141-2.911-6.817-1.045c-2.444,1.704-3.014,4.236-1.311,6.683c0.575,0.826,1.34,1.571,1.957,1.928L519.491,121.943
			z"/>
		<path fill="#003B71" d="M525.804,120.228c1.115-0.724,1.898-1.257,2.609-1.79l1.173,1.809l-1.528,1.087l0.044,0.068
			c1.431-0.351,2.646,0.229,3.218,1.108c0.131,0.202,0.19,0.332,0.267,0.523l-1.96,1.272c-0.076-0.191-0.163-0.399-0.328-0.652
			c-0.646-0.998-1.728-1.257-2.776-0.84c-0.209,0.087-0.45,0.195-0.688,0.35l-4.26,2.763l-1.35-2.079L525.804,120.228z"/>
		<path fill="#003B71" d="M528.525,129.027c-1.484,0.972-1.418,2.558-0.603,3.902c0.595,0.981,1.162,1.604,1.79,2.095l-1.275,1.2
			c-0.732-0.546-1.563-1.41-2.295-2.616c-1.651-2.722-0.953-5.339,1.613-6.897c2.326-1.411,5.371-1.326,7.003,1.362
			c1.651,2.722-0.045,4.977-1.888,6.096c-0.396,0.241-0.729,0.394-0.938,0.475L528.525,129.027z M532.245,131.815
			c0.785-0.454,1.851-1.572,0.995-2.984c-0.796-1.31-2.319-1.139-3.232-0.703L532.245,131.815z"/>
		<path fill="#003B71" d="M532.068,143.448l0.871-0.673l-0.03-0.053c-0.964-0.154-1.939-0.785-2.563-1.894
			c-0.964-1.724-0.257-3.391,1.045-4.119c2.164-1.211,4.328,0.096,6.083,3.273l0.141-0.079c0.563-0.314,1.367-1.065,0.521-2.578
			c-0.473-0.845-1.228-1.577-1.923-1.951l1.171-1.209c0.741,0.417,1.731,1.318,2.489,2.673c1.536,2.744,0.237,4.511-1.628,5.554
			l-3.097,1.733c-0.773,0.433-1.512,0.892-1.99,1.274L532.068,143.448z M536.098,140.823c-0.82-1.551-1.974-2.824-3.273-2.095
			c-0.845,0.472-0.927,1.234-0.543,1.92c0.481,0.862,1.399,1.18,2.124,1.03c0.188-0.036,0.374-0.117,0.514-0.196L536.098,140.823z"
			/>
		<path fill="#003B71" d="M546.761,144.172l-2.483,1.295l1.089,2.092l-1.645,0.857l-1.091-2.092l-3.844,2.003
			c-1.054,0.55-1.459,1.125-1.021,1.965c0.195,0.376,0.398,0.634,0.555,0.803l-1.661,0.912c-0.294-0.257-0.682-0.782-1.044-1.479
			c-0.42-0.804-0.506-1.624-0.273-2.268c0.259-0.726,0.935-1.35,2.078-1.946l4.094-2.134l-0.65-1.251l1.645-0.857l0.652,1.251
			l1.966-1.025L546.761,144.172z"/>
		<path fill="#003B71" d="M542.015,153.402c-1.568,0.828-1.651,2.413-0.968,3.828c0.501,1.034,1.007,1.708,1.585,2.256l-1.384,1.073
			c-0.678-0.613-1.423-1.551-2.038-2.821c-1.388-2.867-0.444-5.405,2.259-6.715c2.449-1.185,5.475-0.813,6.844,2.017
			c1.389,2.866-0.514,4.952-2.454,5.891c-0.417,0.202-0.763,0.324-0.979,0.385L542.015,153.402z M545.456,156.529
			c0.824-0.378,1.991-1.391,1.271-2.878c-0.668-1.379-2.2-1.354-3.151-1.005L545.456,156.529z"/>
	</g>
	<g>
		<path fill="#003B71" d="M252.752,580.9l-5.091-0.538l-0.419,3.968l5.691,0.602l-0.214,2.023l-8.156-0.861l1.427-13.507l7.856,0.83
			l-0.214,2.023l-5.392-0.569l-0.368,3.487l5.091,0.538L252.752,580.9z"/>
		<path fill="#003B71" d="M257.416,577.483l1.235,5.079c0.221,0.884,0.365,1.683,0.489,2.5l0.061,0.004
			c0.238-0.791,0.514-1.539,0.838-2.405l1.901-4.856l2.613,0.188l-4.436,9.523l-2.433-0.172l-2.943-10.05L257.416,577.483z"/>
		<path fill="#003B71" d="M271.382,588.068l-0.122-1.094l-0.06-0.003c-0.633,0.743-1.68,1.25-2.948,1.204
			c-1.974-0.07-3.029-1.542-2.975-3.031c0.09-2.477,2.329-3.646,5.953-3.493l0.006-0.162c0.023-0.645-0.2-1.723-1.932-1.783
			c-0.967-0.035-1.984,0.23-2.665,0.629l-0.424-1.628c0.74-0.417,2.024-0.794,3.575-0.737c3.142,0.113,3.976,2.141,3.898,4.273
			l-0.128,3.545c-0.033,0.886-0.023,1.754,0.056,2.361L271.382,588.068z M271.232,583.263c-1.75-0.103-3.436,0.22-3.489,1.71
			c-0.035,0.967,0.573,1.432,1.358,1.46c0.987,0.036,1.734-0.581,1.982-1.278c0.066-0.181,0.094-0.38,0.1-0.541L271.232,583.263z"/>
		<path fill="#003B71" d="M276.668,573.871l2.498,0.022l-0.134,14.307l-2.498-0.022L276.668,573.871z"/>
		<path fill="#003B71" d="M290.924,585.12c0.021,1.17,0.082,2.136,0.139,2.94l-2.179,0.041l-0.147-1.487l-0.041,0.001
			c-0.409,0.713-1.357,1.737-3.111,1.771c-1.793,0.033-3.446-1.003-3.508-4.207l-0.109-5.765l2.479-0.047l0.102,5.341
			c0.031,1.633,0.575,2.671,1.886,2.646c0.986-0.02,1.618-0.737,1.868-1.366c0.076-0.225,0.132-0.486,0.128-0.771l-0.113-5.925
			l2.479-0.047L290.924,585.12z"/>
		<path fill="#003B71" d="M299.779,587.612l-0.223-1.077l-0.061,0.004c-0.561,0.799-1.557,1.398-2.822,1.472
			c-1.972,0.112-3.158-1.253-3.242-2.741c-0.142-2.474,1.979-3.846,5.602-4.031l-0.01-0.161c-0.035-0.645-0.357-1.694-2.088-1.597
			c-0.966,0.056-1.955,0.413-2.595,0.873l-0.573-1.58c0.698-0.483,1.942-0.979,3.49-1.066c3.139-0.179,4.157,1.763,4.277,3.895
			l0.201,3.54c0.051,0.886,0.141,1.747,0.273,2.345L299.779,587.612z M299.186,582.843c-1.752,0.061-3.398,0.536-3.314,2.024
			c0.055,0.966,0.703,1.373,1.488,1.329c0.984-0.057,1.673-0.74,1.854-1.458c0.051-0.186,0.061-0.388,0.051-0.547L299.186,582.843z"
			/>
		<path fill="#003B71" d="M306.635,574.439l0.242,2.791l2.35-0.204l0.16,1.848l-2.351,0.203l0.375,4.315
			c0.103,1.185,0.478,1.779,1.421,1.696c0.422-0.035,0.736-0.124,0.953-0.204l0.204,1.886c-0.351,0.172-0.982,0.327-1.767,0.396
			c-0.904,0.078-1.691-0.157-2.197-0.619c-0.57-0.517-0.889-1.378-1-2.663l-0.397-4.598l-1.405,0.122l-0.16-1.848l1.405-0.122
			l-0.19-2.207L306.635,574.439z"/>
		<path fill="#003B71" d="M313.563,582.206c0.266,1.754,1.734,2.354,3.297,2.171c1.142-0.133,1.941-0.39,2.649-0.757l0.56,1.66
			c-0.801,0.438-1.932,0.834-3.332,0.998c-3.162,0.37-5.252-1.354-5.601-4.337c-0.315-2.703,1.029-5.437,4.151-5.802
			c3.162-0.369,4.507,2.11,4.758,4.252c0.055,0.461,0.057,0.826,0.042,1.052L313.563,582.206z M317.645,579.984
			c-0.086-0.903-0.658-2.34-2.301-2.146c-1.521,0.179-2.001,1.634-1.984,2.646L317.645,579.984z"/>
	</g>
</g>
</svg>
